<svg width="60" height="60" viewBox="0 0 60 60" fill="none" xmlns="http://www.w3.org/2000/svg">
<path d="M0.567053 0.00329722C0.233696 0.0665614 -0.00573826 0.360985 0.000104648 0.700671V9.07198C0.000104648 9.45741 0.312531 9.76984 0.697964 9.76984H4.88418V25.1184H0.697964V25.1179C0.312531 25.1184 0.000104648 25.4303 0.000104648 25.8158V34.1871C0.000104648 34.5725 0.312531 34.8849 0.697964 34.8849H4.88418V50.2335H0.697964V50.233C0.312531 50.2335 0.000104648 50.5454 0.000104648 50.9308V59.3021C0.000104648 59.6876 0.312531 60 0.697964 60H9.06977C9.4552 60 9.76763 59.6876 9.76763 59.3021V55.8138H25.1162V59.3021C25.1162 59.6876 25.4286 60 25.8135 60H34.1859C34.5708 60 34.8832 59.6876 34.8832 59.3021V55.8138H50.2318V59.3021C50.2318 59.6876 50.5442 60 50.9296 60H59.3014C59.6869 60 59.9993 59.6876 59.9993 59.3021V50.9308C59.9993 50.5454 59.6869 50.2335 59.3014 50.233H55.1152V34.8844H59.3014V34.8849C59.6869 34.8849 59.9993 34.5725 59.9993 34.1871V25.8158C59.9993 25.4303 59.6869 25.1184 59.3014 25.1179H55.1152V9.76935H59.3014V9.76984C59.6869 9.76984 59.9993 9.45741 59.9993 9.07198V0.700671C60.0051 0.360985 59.7657 0.0665726 59.4323 0.00329722C59.389 -0.0010826 59.3452 -0.0010826 59.3014 0.00329722H50.9296C50.5442 0.00329722 50.2318 0.315239 50.2318 0.700671V4.18898H34.8832V0.700671C34.8832 0.315239 34.5708 0.00329722 34.1859 0.00329722H25.8135C25.7702 -0.0010826 25.7264 -0.0010826 25.6831 0.00329722C25.3493 0.0665614 25.1103 0.360985 25.1162 0.700671V4.18898H19.5348C19.4914 4.1846 19.4476 4.1846 19.4038 4.18898C19.2184 4.20552 19.0476 4.29555 18.9284 4.43863C18.8097 4.58218 18.7522 4.76663 18.7697 4.95204C18.7873 5.13746 18.8778 5.30827 19.0213 5.42701C19.1644 5.54527 19.3493 5.60171 19.5348 5.5842H25.1162V9.0725V9.07202C25.1162 9.45745 25.4286 9.76988 25.8135 9.76988H34.1859C34.5708 9.76988 34.8832 9.45745 34.8832 9.07202V5.58371H50.2318V9.07202C50.2318 9.45745 50.5442 9.76988 50.9296 9.76988H53.72V25.1184H50.9296V25.1179C50.5442 25.1184 50.2318 25.4304 50.2318 25.8158V34.1871C50.2322 34.5725 50.5442 34.885 50.9296 34.885H53.72V50.2335H50.9296V50.233C50.5442 50.2335 50.2322 50.5454 50.2318 50.9309V54.4192H34.8832V50.9309C34.8832 50.5454 34.5708 50.2335 34.1859 50.233H25.8135C25.4286 50.2335 25.1162 50.5454 25.1162 50.9309V54.4192H9.76763V50.9309C9.76714 50.5454 9.4552 50.2335 9.06977 50.233H6.27938V34.8845H9.06977V34.885C9.4552 34.885 9.76714 34.5725 9.76763 34.1871V25.8158C9.76763 25.4304 9.4552 25.1184 9.06977 25.1179H6.27938V9.76939H9.06977V9.76988C9.4552 9.76988 9.76763 9.45745 9.76763 9.07202V5.58371H15.349L15.3486 5.5842C15.5354 5.58663 15.7155 5.51461 15.8488 5.38321C15.9817 5.2523 16.0566 5.07321 16.0566 4.88634C16.0566 4.69946 15.9817 4.52086 15.8488 4.38947C15.7155 4.25856 15.5354 4.18605 15.3486 4.18896H9.76714V0.700659H9.76763C9.76763 0.315226 9.4552 0.00328486 9.06977 0.00328486H0.697964C0.654166 -0.00109495 0.610368 -0.00109495 0.567053 0.00328486V0.00329722ZM1.39533 1.39849H8.37194V8.3746H1.39533V1.39849ZM26.5111 1.39849H33.4877V8.3746H26.5111V1.39849ZM51.6269 1.39849H58.6035V8.3746H51.6269V1.39849ZM1.39533 26.513H8.37194V33.4891H1.39533V26.513ZM51.6269 26.513H58.6035V33.4891H51.6269V26.513ZM1.39533 51.6276H8.37194V58.6037H1.39533V51.6276ZM26.5111 51.6276H33.4877V58.6037H26.5111V51.6276ZM51.6269 51.6276H58.6035V58.6037H51.6269V51.6276Z" fill="#F8B242"/>
</svg>
