<svg width="382" height="367" viewBox="0 0 382 367" fill="none" xmlns="http://www.w3.org/2000/svg">
<path d="M115.981 1.52282C117.202 1.00285 118.431 0.495188 119.665 0H262.335C263.569 0.495188 264.798 1.00285 266.019 1.52282H115.981Z" fill="#F8B242"/>
<path d="M87.272 16.751C88.0679 16.2377 88.8678 15.73 89.6718 15.2282H292.328C293.132 15.73 293.932 16.2377 294.728 16.751H87.272Z" fill="#F8B242"/>
<path d="M66.7969 31.9793C67.3964 31.468 67.9992 30.9604 68.6052 30.4564H313.395C314.001 30.9604 314.604 31.468 315.203 31.9793H66.7969Z" fill="#F8B242"/>
<path d="M50.885 47.2075C51.3602 46.6973 51.8382 46.1896 52.319 45.6846H329.681C330.162 46.1896 330.64 46.6973 331.115 47.2075H50.885Z" fill="#F8B242"/>
<path d="M38.1092 62.4357C38.4935 61.9261 38.8803 61.4185 39.2695 60.9129H342.73C343.12 61.4185 343.507 61.9261 343.891 62.4357H38.1092Z" fill="#F8B242"/>
<path d="M27.7399 77.6639C28.0517 77.1547 28.3658 76.6471 28.6823 76.1411H353.318C353.634 76.6471 353.948 77.1547 354.26 77.6639H27.7399Z" fill="#F8B242"/>
<path d="M19.3484 92.8921C19.5991 92.3832 19.852 91.8756 20.1071 91.3693H361.893C362.148 91.8756 362.401 92.3832 362.652 92.8921H19.3484Z" fill="#F8B242"/>
<path d="M12.6614 108.12C12.8585 107.612 13.0578 107.104 13.2591 106.598H368.741C368.942 107.104 369.141 107.612 369.339 108.12H12.6614Z" fill="#F8B242"/>
<path d="M7.49611 123.349C7.64471 122.84 7.79537 122.332 7.9481 121.826H374.052C374.205 122.332 374.355 122.84 374.504 123.349H7.49611Z" fill="#F8B242"/>
<path d="M3.72663 138.577C3.83022 138.068 3.93584 137.561 4.04349 137.054H377.957C378.064 137.561 378.17 138.068 378.273 138.577H3.72663Z" fill="#F8B242"/>
<path d="M1.26576 153.805C1.32678 153.297 1.38981 152.789 1.45484 152.282H380.545C380.61 152.789 380.673 153.297 380.734 153.805H1.26576Z" fill="#F8B242"/>
<path d="M0.054096 169.033C0.0741624 168.525 0.0962283 168.017 0.120286 167.51H381.88C381.904 168.017 381.926 168.525 381.946 169.033H0.054096Z" fill="#F8B242"/>
<path d="M0.054096 184.261C0.03407 183.754 0.0160354 183.247 0 182.739H382C381.984 183.247 381.966 183.754 381.946 184.261H0.054096Z" fill="#F8B242"/>
<path d="M1.26576 199.49C1.20489 198.983 1.14602 198.475 1.08916 197.967H380.911C380.854 198.475 380.795 198.983 380.734 199.49H1.26576Z" fill="#F8B242"/>
<path d="M3.72662 214.718C3.62333 214.211 3.52206 213.703 3.42282 213.195H378.577C378.478 213.703 378.377 214.211 378.273 214.718H3.72662Z" fill="#F8B242"/>
<path d="M7.49611 229.946C7.34803 229.439 7.20201 228.932 7.05805 228.423H374.942C374.798 228.932 374.652 229.439 374.504 229.946H7.49611Z" fill="#F8B242"/>
<path d="M12.6614 245.174C12.4651 244.668 12.2709 244.16 12.0788 243.651H369.921C369.729 244.16 369.535 244.668 369.339 245.174H12.6614Z" fill="#F8B242"/>
<path d="M19.3484 260.402C19.0989 259.896 18.8516 259.389 18.6065 258.88H363.393C363.148 259.389 362.901 259.896 362.652 260.402H19.3484Z" fill="#F8B242"/>
<path d="M27.7399 275.631C27.43 275.125 27.1224 274.617 26.8172 274.108H355.183C354.878 274.617 354.57 275.125 354.26 275.631H27.7399Z" fill="#F8B242"/>
<path d="M38.1092 290.859C37.7279 290.353 37.3491 289.846 36.9727 289.336H345.027C344.651 289.846 344.272 290.353 343.891 290.859H38.1092Z" fill="#F8B242"/>
<path d="M50.885 306.087C50.4145 305.582 49.9468 305.074 49.4818 304.564H332.518C332.053 305.074 331.586 305.582 331.115 306.087H50.885Z" fill="#F8B242"/>
<path d="M66.7969 321.315C66.2057 320.811 65.6176 320.304 65.0327 319.793H316.967C316.382 320.304 315.794 320.811 315.203 321.315H66.7969Z" fill="#F8B242"/>
<path d="M87.272 336.544C86.4935 336.041 85.7189 335.534 84.9482 335.021H297.052C296.281 335.534 295.507 336.041 294.728 336.544H87.272Z" fill="#F8B242"/>
<path d="M115.981 351.772C114.814 351.275 113.654 350.768 112.499 350.249H269.501C268.346 350.768 267.186 351.275 266.019 351.772H115.981Z" fill="#F8B242"/>
<path d="M215.287 365.477C207.334 366.482 199.227 367 191 367C182.773 367 174.666 366.482 166.713 365.477H215.287Z" fill="#F8B242"/>
</svg>
