<svg width="90" height="172" viewBox="0 0 90 172" fill="none" xmlns="http://www.w3.org/2000/svg">
<path d="M4.23939 71.2412C4.53187 71.0559 4.79185 70.8238 5.00891 70.5541C5.29119 70.2008 5.55272 69.8315 5.79218 69.4479C6.12197 68.9601 6.40367 68.5684 6.63728 68.2799C6.88498 67.9832 7.18261 67.7321 7.51674 67.5378C7.89061 67.324 8.31606 67.217 8.7466 67.2286C9.22955 67.2275 9.704 67.3556 10.1208 67.5997C10.5527 67.8573 10.9011 68.2343 11.1239 68.6852C11.3719 69.189 11.4945 69.7453 11.4812 70.3067C11.4825 70.6988 11.4317 71.0893 11.33 71.4679C11.2463 71.8253 11.0997 72.1649 10.8971 72.471C10.8696 72.5139 10.8318 72.5493 10.7872 72.5741C10.7238 72.5878 10.6582 72.5878 10.5948 72.5741L8.33436 72.7252C8.29313 72.7252 8.27252 72.7252 8.25878 72.6565C8.25442 72.6472 8.25223 72.6369 8.25238 72.6266C8.25253 72.6163 8.255 72.6061 8.25963 72.5968C8.26425 72.5876 8.2709 72.5795 8.27908 72.5732C8.28726 72.5669 8.29676 72.5625 8.30687 72.5603C9.04721 72.3588 9.74536 72.026 10.3681 71.5778C10.6299 71.3909 10.8423 71.1431 10.9871 70.8559C11.132 70.5686 11.2048 70.2505 11.1995 69.9288C11.2145 69.508 11.0724 69.0965 10.801 68.7746C10.6282 68.6055 10.4207 68.4761 10.1929 68.3954C9.96508 68.3147 9.7224 68.2847 9.48177 68.3073C9.05767 68.299 8.63866 68.4008 8.26565 68.6028C7.93374 68.7773 7.63586 69.01 7.38619 69.2899C7.09297 69.6484 6.8222 70.0247 6.57544 70.4167C6.25939 70.877 5.98456 71.2412 5.75782 71.5091C5.52503 71.7897 5.24046 72.023 4.91959 72.1962C4.56373 72.3898 4.16343 72.4869 3.75843 72.4779C3.26911 72.491 2.78816 72.3491 2.38428 72.0725C2.01064 71.8042 1.71822 71.4381 1.53918 71.0144C1.35616 70.5795 1.26269 70.1121 1.26435 69.6403C1.25329 69.0275 1.37763 68.4199 1.6285 67.8607C1.64692 67.7995 1.68391 67.7454 1.73437 67.706C1.78483 67.6666 1.84626 67.6439 1.9102 67.6409L3.88898 67.5722C3.89856 67.5712 3.90824 67.5723 3.91739 67.5753C3.92653 67.5783 3.93494 67.5832 3.94207 67.5897C3.94919 67.5962 3.95488 67.6041 3.95875 67.6129C3.96263 67.6217 3.9646 67.6313 3.96456 67.6409C3.96456 67.689 3.96456 67.7233 3.91646 67.7302C3.33358 67.8424 2.78101 68.0766 2.29496 68.4173C2.04969 68.5802 1.85062 68.8037 1.71701 69.0661C1.58341 69.3285 1.51979 69.6209 1.53231 69.9151C1.5205 70.1286 1.557 70.3421 1.63908 70.5395C1.72116 70.737 1.84671 70.9134 2.00639 71.0556C2.34439 71.3328 2.77197 71.4769 3.20877 71.461C3.5659 71.4826 3.92216 71.4066 4.23939 71.2412Z" fill="#010C08"/>
<path d="M11.0355 63.3396C10.7491 63.7671 10.3461 64.1033 9.87429 64.3084C9.40107 64.5201 8.88799 64.6278 8.3696 64.6245C7.74873 64.6408 7.13684 64.4735 6.61069 64.1435C6.14131 63.8378 5.75381 63.4219 5.48197 62.9321C5.21013 62.4423 5.06218 61.8934 5.05103 61.3334C5.04511 60.9117 5.14679 60.4955 5.34647 60.1241C5.4055 59.9736 5.50582 59.8429 5.63587 59.7468C5.76592 59.6508 5.92043 59.5934 6.08164 59.5813C6.15684 59.58 6.23154 59.5939 6.30121 59.6223C6.37089 59.6506 6.43409 59.6928 6.48701 59.7462C6.54699 59.8021 6.59404 59.8704 6.6249 59.9464C6.65575 60.0223 6.66966 60.1041 6.66565 60.186C6.66565 60.5089 6.45953 60.7562 6.04728 60.9211C5.85029 60.9995 5.67227 61.1189 5.52511 61.2715C5.40915 61.4407 5.35349 61.644 5.36708 61.8487C5.36612 62.0908 5.42916 62.3289 5.54981 62.5389C5.67047 62.7488 5.84445 62.9231 6.05416 63.0442C6.61052 63.3575 7.24398 63.5075 7.88178 63.4771C8.64179 63.5096 9.39317 63.3055 10.0323 62.893C10.3131 62.6858 10.5367 62.4107 10.6821 62.0934C10.8275 61.7761 10.89 61.4272 10.8637 61.0792C10.8672 60.5487 10.6957 60.0319 10.3759 59.6088C10.3809 59.5762 10.3981 59.5468 10.424 59.5264C10.4583 59.5264 10.4789 59.5264 10.5064 59.5264C10.813 59.8284 11.0641 60.1819 11.2484 60.5707C11.4088 60.9438 11.4884 61.3465 11.4821 61.7525C11.4957 62.3144 11.3401 62.8673 11.0355 63.3396Z" fill="#010C08"/>
<path d="M5.26381 52.9237C5.31972 52.8373 5.39589 52.7658 5.48569 52.7155C5.5755 52.6652 5.67622 52.6376 5.77912 52.6351C5.92726 52.6325 6.07131 52.6838 6.18449 52.7794C6.23951 52.8297 6.28279 52.8914 6.31129 52.9603C6.33979 53.0292 6.35279 53.1034 6.34939 53.1779C6.35058 53.2635 6.33176 53.3482 6.29443 53.4252C6.25825 53.4898 6.21442 53.5498 6.16388 53.6039C6.13035 53.6329 6.10241 53.6679 6.08143 53.7069C6.00373 53.7718 5.93652 53.8483 5.88218 53.9337C5.83298 54.0166 5.8091 54.1122 5.81347 54.2085C5.82256 54.3461 5.87284 54.4778 5.95776 54.5864C6.16428 54.8162 6.39459 55.0235 6.64484 55.2048H10.039C10.2733 55.2189 10.5079 55.1814 10.7261 55.0948C10.8053 55.0546 10.8747 54.9975 10.9293 54.9274C10.9839 54.8573 11.0225 54.7761 11.0421 54.6895C11.1135 54.402 11.1436 54.1059 11.1314 53.81C11.1314 53.81 11.1658 53.7619 11.2276 53.7619C11.2895 53.7619 11.3238 53.7619 11.3238 53.81C11.3238 54.1329 11.3238 54.394 11.3238 54.5864V55.7063V56.5308C11.3238 56.6682 11.3238 56.8537 11.3238 57.0874C11.3238 57.0874 11.2895 57.1355 11.2276 57.1355C11.1658 57.1355 11.1314 57.1355 11.1314 57.0874C11.1482 56.9642 11.1378 56.8389 11.101 56.7202C11.0642 56.6015 11.0019 56.4923 10.9184 56.4003C10.6495 56.255 10.3428 56.1951 10.039 56.2285H6.93341C6.68026 56.2051 6.42502 56.2355 6.18449 56.3178C6.11126 56.3489 6.04948 56.402 6.00764 56.4697C5.96581 56.5373 5.94598 56.6163 5.95089 56.6957C5.97693 56.9717 6.05627 57.2401 6.18449 57.4859C6.18449 57.5202 6.1845 57.5408 6.10892 57.5546C6.03334 57.5683 6.02647 57.5546 6.01273 57.5546L5.06456 55.7338C5.05956 55.7043 5.05956 55.6741 5.06456 55.6445C5.06456 55.5483 5.18136 55.4521 5.41497 55.3628C5.708 55.2571 6.01728 55.2036 6.32878 55.2048C5.95906 54.9259 5.62044 54.608 5.31878 54.2566C5.15717 54.0628 5.06311 53.8216 5.05082 53.5695C5.04881 53.3367 5.12368 53.1097 5.26381 52.9237Z" fill="#010C08"/>
<path d="M11.0487 49.2615C10.7445 49.7075 10.3239 50.0615 9.83262 50.2853C9.31004 50.5292 8.7397 50.6535 8.16303 50.6494C7.5471 50.6684 6.9395 50.5034 6.41785 50.1753C5.95587 49.8818 5.58473 49.4655 5.34602 48.9729C5.11411 48.5051 4.99192 47.9905 4.98874 47.4683C4.97854 46.922 5.1395 46.3862 5.44908 45.9361C5.75305 45.4959 6.17107 45.1468 6.65833 44.9261C7.15295 44.6867 7.69602 44.5645 8.24547 44.5688C8.84301 44.5566 9.43242 44.7087 9.94942 45.0085C10.4298 45.2817 10.8265 45.6808 11.0968 46.1628C11.3641 46.6438 11.5014 47.186 11.4953 47.7362C11.5077 48.2786 11.3517 48.8115 11.0487 49.2615ZM10.5815 46.1766C10.0149 45.8735 9.37452 45.7354 8.7333 45.7781C8.11859 45.766 7.50666 45.8637 6.92629 46.0666C6.4632 46.2166 6.04826 46.4869 5.72391 46.8499C5.45295 47.16 5.30399 47.558 5.30479 47.9698C5.29734 48.1908 5.34798 48.4099 5.45166 48.6052C5.55535 48.8005 5.70845 48.9652 5.89568 49.0829C6.43014 49.3714 7.03463 49.5046 7.64085 49.4676C8.25649 49.4766 8.86938 49.3838 9.45473 49.1928C9.9368 49.0402 10.3751 48.7739 10.7327 48.4164C11.0285 48.124 11.1965 47.7262 11.1999 47.3102C11.2082 47.0831 11.1552 46.858 11.0464 46.6585C10.9376 46.459 10.777 46.2925 10.5815 46.1766Z" fill="#010C08"/>
<path d="M11.1925 42.4251C11.1306 42.4251 11.0963 42.4251 11.1031 42.3839C11.1294 42.2582 11.129 42.1284 11.1017 42.0029C11.0745 41.8774 11.0211 41.7591 10.9451 41.6556C10.6853 41.4954 10.3845 41.4142 10.0794 41.422L1.98565 40.7899C1.71051 40.7557 1.43152 40.7696 1.16116 40.8311C1.08707 40.8501 1.02106 40.8925 0.972819 40.9518C0.924582 41.0112 0.896673 41.0845 0.893198 41.1609C0.893577 41.3857 0.947762 41.6071 1.05123 41.8067C1.05123 41.8067 1.05123 41.8548 0.968776 41.8686C0.886327 41.8823 0.886327 41.8686 0.872586 41.8686L0 39.828V39.7661C0.00135496 39.7451 0.00691693 39.7245 0.0163575 39.7056C0.0257981 39.6867 0.038926 39.6699 0.054966 39.6562C0.0688303 39.6386 0.0866036 39.6245 0.106878 39.6149C0.127151 39.6054 0.149369 39.6007 0.171769 39.6012L10.1618 40.3776C10.4604 40.4305 10.7679 40.3971 11.0482 40.2814C11.1399 40.1931 11.2114 40.086 11.2576 39.9673C11.3039 39.8487 11.3239 39.7214 11.3161 39.5944C11.3161 39.5531 11.3505 39.5325 11.4123 39.5394C11.4742 39.5463 11.5085 39.5394 11.5016 39.6081C11.5016 39.8348 11.5016 40.0135 11.4467 40.1509L11.3642 40.996L11.3161 41.8205C11.3161 41.9579 11.3161 42.1503 11.3161 42.3907C11.2886 42.4182 11.2543 42.4251 11.1925 42.4251Z" fill="#010C08"/>
<path d="M11.6811 37.643C11.6193 37.643 11.5918 37.643 11.5918 37.595C11.6384 37.475 11.6576 37.3461 11.6481 37.2177C11.6386 37.0894 11.6006 36.9647 11.5368 36.8529C11.3065 36.6543 11.0215 36.5297 10.7192 36.4956L2.80411 34.7436C2.54032 34.6714 2.26595 34.6458 1.99336 34.668C1.91562 34.6759 1.84262 34.7091 1.78553 34.7625C1.72845 34.8158 1.69043 34.8864 1.67731 34.9635C1.63916 35.194 1.66045 35.4305 1.73915 35.6505C1.73915 35.6505 1.73915 35.6986 1.64983 35.7055C1.56051 35.7124 1.56051 35.7055 1.56051 35.7055L0.990234 33.5687V33.5069C0.994961 33.4854 1.00413 33.4651 1.01714 33.4473C1.03015 33.4296 1.04673 33.4148 1.06581 33.4038C1.07973 33.3872 1.09824 33.3751 1.11902 33.369C1.1398 33.3629 1.16193 33.363 1.18262 33.3694L10.9941 35.4788C11.2849 35.5696 11.5964 35.5696 11.8872 35.4788C12.0521 35.4032 12.1689 35.1902 12.2445 34.8467C12.2445 34.8054 12.2926 34.7917 12.3545 34.8054C12.4163 34.8192 12.4438 34.8467 12.43 34.8879C12.3819 35.1077 12.3407 35.2795 12.2995 35.4101L12.1002 36.2414L11.9079 37.0796C11.9079 37.2171 11.8529 37.4026 11.7979 37.643C11.7979 37.6568 11.7636 37.6568 11.6811 37.643Z" fill="#010C08"/>
<path d="M15.8925 26.4713C15.8031 26.5881 15.7001 26.7393 15.5764 26.911C15.4527 27.0828 15.3153 27.2889 15.171 27.5088L14.6282 28.3883L14.2297 29.041C14.2297 29.041 14.1816 29.041 14.1335 29.041C14.0854 29.041 14.058 28.9791 14.0648 28.9654C14.2141 28.7534 14.3343 28.5223 14.4221 28.2783C14.4466 28.2022 14.4525 28.1213 14.4393 28.0424C14.4262 27.9635 14.3944 27.8889 14.3465 27.8249C14.1912 27.6455 14.0079 27.4924 13.8037 27.3714L7.62007 23.4138C7.42816 23.2777 7.21437 23.1755 6.98796 23.1115C6.91107 23.0971 6.83197 23.0994 6.75607 23.1184C6.68018 23.1374 6.60928 23.1725 6.54823 23.2215C6.36073 23.3946 6.19879 23.5936 6.06728 23.8123C6.06728 23.8123 6.01919 23.8123 5.96422 23.8123C5.90925 23.8123 5.89551 23.7505 5.90925 23.723L6.3215 23.1184L6.90551 22.2664C7.10476 21.9504 7.29715 21.6274 7.47578 21.2908C7.65442 20.9541 7.87429 20.6037 7.95674 20.48C8.44911 19.6818 9.13429 19.0203 9.94926 18.5562C10.6885 18.1336 11.5304 17.9243 12.3815 17.9516C13.241 17.9922 14.0738 18.2627 14.7931 18.7348C15.602 19.2417 16.2632 19.9526 16.7101 20.7961C17.1223 21.5624 17.3126 22.4285 17.2597 23.297C17.2054 24.1326 16.9407 24.9409 16.4902 25.6468C16.3253 25.8942 16.1261 26.169 15.8925 26.4713ZM16.7719 23.6887C16.7715 22.9952 16.5685 22.317 16.1879 21.7374C15.7176 21.0366 15.1011 20.4459 14.3809 20.0059C13.6713 19.5367 12.8783 19.2079 12.0448 19.0372C11.3228 18.8807 10.5717 18.9258 9.87368 19.1677C9.21769 19.403 8.6607 19.8534 8.2934 20.4457C8.10883 20.7044 7.95439 20.9833 7.83306 21.277C7.76134 21.4675 7.76134 21.6775 7.83306 21.8679C7.94278 22.0818 8.11544 22.2568 8.32776 22.3695L14.3053 26.2171C14.4407 26.326 14.5977 26.405 14.7659 26.4488C14.9341 26.4926 15.1096 26.5003 15.281 26.4713C15.5489 26.3957 15.8512 26.1003 16.181 25.585C16.5536 25.0216 16.7585 24.364 16.7719 23.6887Z" fill="#010C08"/>
<path d="M21.2991 19.051C20.7644 19.1217 20.2205 19.0457 19.7257 18.8311C19.1998 18.6013 18.7307 18.2588 18.3515 17.828C17.9266 17.3825 17.6443 16.8203 17.5408 16.2133C17.4498 15.6735 17.5117 15.119 17.7194 14.6125C17.9096 14.126 18.2108 13.6908 18.5989 13.3414C18.9962 12.9672 19.5008 12.7269 20.0418 12.6543C20.5719 12.5868 21.1105 12.6627 21.6014 12.8742C22.1079 13.0886 22.5608 13.4124 22.9275 13.8223C23.3361 14.2587 23.6186 14.7977 23.7451 15.382C23.8623 15.9211 23.829 16.482 23.6489 17.0035C23.4789 17.5346 23.1678 18.0096 22.7488 18.3776C22.3466 18.7462 21.8402 18.9814 21.2991 19.051ZM23.2848 16.6393C23.1309 16.0146 22.8048 15.4456 22.3435 14.9972C21.9406 14.5322 21.4592 14.1415 20.9212 13.8429C20.503 13.6031 20.0291 13.4775 19.5471 13.4788C19.136 13.4841 18.7407 13.6378 18.434 13.9116C18.2639 14.0526 18.1347 14.2366 18.0598 14.4444C17.9849 14.6522 17.967 14.8763 18.008 15.0934C18.142 15.6867 18.4451 16.2284 18.8806 16.6531C19.2837 17.1246 19.7619 17.5262 20.296 17.8417C20.732 18.1023 21.2248 18.2532 21.732 18.2814C22.1531 18.2904 22.5607 18.1323 22.8656 17.8417C23.0364 17.6965 23.1662 17.5091 23.2422 17.2982C23.3181 17.0872 23.3375 16.8601 23.2985 16.6393H23.2848Z" fill="#010C08"/>
<path d="M32.0177 5.37109C32.0452 5.42606 32.0452 5.46041 32.0177 5.47415C31.9067 5.5283 31.8083 5.60524 31.729 5.69994C31.6497 5.79465 31.5912 5.905 31.5574 6.02381C31.467 6.38541 31.4483 6.76123 31.5024 7.13001L31.9628 12.1044C31.9628 12.1457 31.9628 12.1869 31.846 12.2281C31.7292 12.2693 31.7017 12.2831 31.6742 12.2281L28.4518 9.59661L28.8572 13.7191C28.8572 13.7603 28.8572 13.8015 28.7404 13.8496C28.6236 13.8977 28.5961 13.8977 28.5686 13.8496L24.5149 10.5448C24.2601 10.3093 23.9704 10.1146 23.656 9.96763C23.567 9.93513 23.4722 9.92141 23.3776 9.92732C23.283 9.93323 23.1907 9.95865 23.1064 10.002C23.1064 10.002 23.0514 10.002 23.0239 9.93327C22.9965 9.86457 23.0239 9.84395 23.0239 9.83021L23.3606 9.59661L23.9858 9.30116L24.8584 8.90953C24.9821 8.83395 25.1607 8.74463 25.3875 8.62783C25.415 8.62783 25.4424 8.64844 25.4699 8.68967C25.4699 8.7515 25.4699 8.78586 25.4699 8.7996C24.9752 9.04695 24.7828 9.27368 24.8928 9.48667C24.9421 9.55958 25.0024 9.62446 25.0714 9.67906L28.3694 12.2968L28.0808 9.32865L27.6342 8.90953C27.3756 8.69439 27.0946 8.5078 26.796 8.353C26.7169 8.31418 26.6299 8.294 26.5418 8.294C26.4536 8.294 26.3667 8.31418 26.2875 8.353C26.2875 8.353 26.2463 8.353 26.2188 8.27742C26.1914 8.20184 26.2188 8.1881 26.2188 8.18123L26.6036 8.00259L27.1945 7.72776L28.0533 7.27429C28.177 7.19871 28.3488 7.10939 28.5686 6.99946C28.5686 6.99946 28.6099 6.99946 28.6373 7.06817C28.6648 7.13688 28.6373 7.15749 28.6373 7.16436C28.1633 7.40484 27.9503 7.63844 28.0946 7.85143C28.1368 7.92141 28.1902 7.98406 28.2526 8.03695L31.5505 10.6891L31.1933 7.19184C31.1805 7.02472 31.1362 6.86152 31.0627 6.71089C30.8566 6.29864 30.4237 6.25055 29.7779 6.58035C29.7779 6.58035 29.7229 6.58035 29.6954 6.51164C29.668 6.44293 29.6954 6.42232 29.6954 6.40858C29.929 6.29177 30.1077 6.20932 30.2245 6.16123L31.0215 5.77647L31.5162 5.50851C31.6537 5.42279 31.7959 5.3448 31.9422 5.2749C31.9422 5.2749 31.9834 5.31613 32.0177 5.37109Z" fill="#010C08"/>
<path d="M42.5569 9.2049C42.5569 9.26674 42.5569 9.3011 42.5569 9.3011C42.3708 9.34257 42.1827 9.37467 41.9935 9.39729L41.1964 9.5347L40.3994 9.70647C40.262 9.74082 40.0765 9.78892 39.8429 9.83014C39.8154 9.83014 39.7948 9.80266 39.7811 9.74769C39.7811 9.68586 39.7811 9.6515 39.7811 9.64463C39.907 9.63663 40.0297 9.60185 40.1411 9.5426C40.2525 9.48336 40.3499 9.40102 40.4269 9.3011C40.5165 9.0101 40.5165 8.6989 40.4269 8.4079L39.9597 5.98939C39.9062 5.52348 39.7121 5.0849 39.4032 4.73204C39.2614 4.60846 39.0909 4.52234 38.9073 4.48154C38.7237 4.44073 38.5327 4.44654 38.352 4.49844C38.0601 4.55951 37.7869 4.68903 37.5549 4.87633C37.2783 5.08043 37.0448 5.3373 36.8679 5.63211L37.5137 8.9713C37.5371 9.27454 37.6548 9.56285 37.8504 9.79579C37.9604 9.86012 38.083 9.90014 38.2098 9.91318C38.3366 9.92622 38.4647 9.91196 38.5856 9.87137C38.6222 9.87137 38.6428 9.89885 38.6474 9.95382C38.652 10.0088 38.652 10.0431 38.6474 10.0569C38.4138 10.105 38.2214 10.1325 38.0771 10.1531L37.2801 10.2905L36.4762 10.4623L35.9266 10.5859C35.9266 10.5859 35.8785 10.5859 35.8716 10.4966C35.8647 10.4073 35.8716 10.4004 35.8716 10.4004C35.9976 10.3929 36.1205 10.3583 36.232 10.299C36.3434 10.2397 36.4408 10.1571 36.5175 10.0569C36.6041 9.76545 36.6041 9.4551 36.5175 9.16368L35.9541 6.16116C35.9148 5.91779 35.8284 5.68441 35.6998 5.47409C35.6541 5.41058 35.5904 5.36224 35.5169 5.3353C35.4434 5.30836 35.3635 5.30405 35.2876 5.32293C35.0375 5.39962 34.8044 5.5232 34.6005 5.68708C34.5662 5.68708 34.5456 5.68708 34.5181 5.62524C34.4906 5.56341 34.5181 5.54279 34.5181 5.52218L36.0709 4.21674C36.1003 4.21063 36.1307 4.21063 36.1602 4.21674C36.2495 4.21674 36.3663 4.29232 36.5037 4.51218C36.6633 4.78424 36.7749 5.08173 36.8335 5.39164C37.0028 4.96965 37.2669 4.59221 37.6052 4.28843C37.9435 3.98465 38.3471 3.76266 38.7848 3.63959C39.0129 3.58175 39.251 3.5758 39.4817 3.62217C39.7124 3.66854 39.9297 3.76606 40.1177 3.90755C40.503 4.24644 40.748 4.71682 40.8048 5.22674L41.3888 8.24987C41.4206 8.55313 41.5373 8.84128 41.7255 9.08123C41.8373 9.14459 41.9612 9.18348 42.0891 9.19532C42.2171 9.20716 42.346 9.1917 42.4675 9.14994C42.4675 9.14994 42.5431 9.14307 42.5569 9.2049Z" fill="#010C08"/>
<path d="M51.7015 2.72593C51.822 3.04206 51.9964 3.33495 52.2168 3.59165C52.5127 3.93157 52.8293 4.25282 53.165 4.55355C53.5909 4.95893 53.9276 5.30933 54.175 5.59104C54.4228 5.88521 54.618 6.21991 54.7521 6.58042C54.8966 6.98803 54.9298 7.4268 54.8483 7.85151C54.7797 8.33227 54.5827 8.78563 54.278 9.16383C53.9499 9.53389 53.5234 9.80314 53.0481 9.94022C52.5079 10.099 51.9369 10.1226 51.3854 10.0089C50.9984 9.94496 50.6218 9.82942 50.2655 9.66539C49.931 9.51693 49.6243 9.31245 49.3586 9.06077C49.3205 9.02767 49.292 8.98495 49.2761 8.93709C49.2621 8.87373 49.2621 8.80808 49.2761 8.74471L49.5235 6.4911C49.5235 6.44988 49.5235 6.42927 49.6059 6.42927C49.6883 6.42927 49.6884 6.42927 49.6884 6.4911C49.7638 7.24802 49.9731 7.98551 50.3067 8.66913C50.4436 8.96037 50.6498 9.21355 50.9074 9.40643C51.165 9.59931 51.466 9.72598 51.7839 9.77532C52.1887 9.86151 52.611 9.79804 52.9726 9.59668C53.168 9.4539 53.3304 9.27083 53.449 9.05983C53.5675 8.84884 53.6394 8.61485 53.6596 8.37369C53.7446 7.9533 53.721 7.51818 53.5909 7.10947C53.469 6.74917 53.2828 6.41395 53.0413 6.12008C52.7324 5.77226 52.4044 5.44195 52.0588 5.13069C51.6603 4.73906 51.3717 4.44362 51.1175 4.13444C50.8844 3.85611 50.705 3.53694 50.5884 3.19314C50.4677 2.82063 50.4417 2.42392 50.5128 2.03886C50.5825 1.55314 50.8066 1.1027 51.1518 0.754025C51.4733 0.414987 51.8862 0.176344 52.3405 0.0669497C52.7942 -0.0223166 53.2609 -0.0223166 53.7146 0.0669497C54.3216 0.169294 54.8986 0.403858 55.4048 0.754025C55.463 0.781563 55.5105 0.827333 55.5403 0.88438C55.5701 0.941426 55.5804 1.00663 55.5697 1.07008L55.3018 3.02824C55.3018 3.06947 55.3018 3.09008 55.2193 3.09695C55.1369 3.10382 55.1437 3.09695 55.1369 3.03512C55.1295 2.44051 54.9935 1.85455 54.7384 1.31743C54.6169 1.04351 54.4264 0.805816 54.1855 0.627577C53.9447 0.449337 53.6617 0.336657 53.3642 0.300555C53.1685 0.250648 52.9643 0.244475 52.766 0.282476C52.5677 0.320477 52.3801 0.401718 52.2168 0.520419C51.883 0.802624 51.6672 1.19983 51.6122 1.63348C51.5333 1.99846 51.5644 2.37861 51.7015 2.72593Z" fill="#010C08"/>
<path d="M57.7144 11.2181C57.4313 10.789 57.2742 10.2891 57.2609 9.77524C57.2479 9.25721 57.3438 8.74221 57.5426 8.26367C57.7681 7.6956 58.1521 7.2043 58.6488 6.84829C59.1055 6.5226 59.6364 6.31617 60.1931 6.24778C60.7499 6.17938 61.3149 6.25118 61.8369 6.45666C62.2268 6.61192 62.5716 6.86229 62.84 7.18496C62.9577 7.29612 63.041 7.43875 63.08 7.59587C63.1189 7.753 63.112 7.91801 63.0599 8.07129C63.0342 8.14292 62.9942 8.20854 62.9422 8.26408C62.8902 8.31962 62.8273 8.36391 62.7575 8.39421C62.6831 8.42822 62.6023 8.44581 62.5205 8.44581C62.4387 8.44581 62.3579 8.42822 62.2835 8.39421C62.1258 8.31901 61.997 8.19451 61.9164 8.03955C61.8358 7.88459 61.8079 7.70761 61.8369 7.53537C61.842 7.3219 61.7973 7.11018 61.7063 6.917C61.5974 6.74524 61.4323 6.61656 61.2391 6.55285C61.0159 6.45302 60.7694 6.41687 60.5268 6.4484C60.2843 6.47993 60.0553 6.5779 59.865 6.73149C59.367 7.11499 58.9881 7.63203 58.7725 8.22245C58.451 8.91278 58.3548 9.6868 58.4977 10.4348C58.583 10.7757 58.7541 11.089 58.9946 11.3452C59.2351 11.6013 59.537 11.7917 59.8718 11.8983C60.3638 12.1026 60.9088 12.1412 61.4246 12.0082C61.4538 12.025 61.4758 12.0519 61.4865 12.0838C61.4908 12.0993 61.4889 12.1158 61.4812 12.13C61.4735 12.1441 61.4606 12.1546 61.4452 12.1594C61.0512 12.3278 60.6298 12.4233 60.2016 12.4411C59.7959 12.4519 59.3927 12.3746 59.0199 12.2144C58.4934 12.0231 58.0379 11.6755 57.7144 11.2181Z" fill="#010C08"/>
<path d="M69.6143 11.1288C69.6562 11.2231 69.6743 11.3263 69.6671 11.4293C69.66 11.5324 69.6277 11.632 69.573 11.7197C69.4953 11.8452 69.3723 11.9362 69.2295 11.9739C69.157 11.9939 69.0807 11.9969 69.0068 11.9826C68.9329 11.9683 68.8633 11.9371 68.8035 11.8914C68.7311 11.8464 68.6699 11.7852 68.6249 11.7128C68.5907 11.6477 68.5653 11.5784 68.5493 11.5067C68.5521 11.4632 68.5521 11.4196 68.5493 11.3761C68.5319 11.2773 68.5043 11.1806 68.4669 11.0876C68.428 10.999 68.3601 10.9263 68.2745 10.8814C68.1554 10.8079 68.0151 10.7764 67.876 10.7921C67.5761 10.8278 67.2811 10.897 66.9965 10.9982L65.1277 13.8359C64.986 14.0227 64.8874 14.2385 64.8391 14.468C64.8304 14.5563 64.8406 14.6455 64.869 14.7296C64.8974 14.8138 64.9434 14.8908 65.004 14.9558C65.2051 15.1733 65.4365 15.3608 65.6911 15.5123C65.6911 15.5123 65.6911 15.5673 65.6911 15.6154C65.6911 15.6635 65.6292 15.691 65.6017 15.6703L64.9559 15.2306L64.0352 14.5985L63.3481 14.1588C63.1829 14.0686 63.0223 13.97 62.8672 13.8633C62.8672 13.8633 62.8672 13.8152 62.8672 13.7603C62.8672 13.7053 62.929 13.6916 62.9565 13.7053C63.0486 13.7884 63.1581 13.8499 63.2769 13.8856C63.3957 13.9212 63.5209 13.9301 63.6436 13.9114C63.8153 13.8565 64.0215 13.6435 64.2688 13.2725L65.959 10.7028C66.112 10.498 66.2219 10.2642 66.282 10.0157C66.2948 9.93757 66.2832 9.85736 66.2488 9.78604C66.2144 9.71472 66.1588 9.65576 66.0896 9.61721C65.8523 9.48509 65.5903 9.40324 65.32 9.37674C65.32 9.37674 65.32 9.32864 65.32 9.27367C65.32 9.21871 65.32 9.20497 65.3888 9.21184L67.45 9.43857C67.4771 9.43261 67.5053 9.43261 67.5324 9.43857C67.6149 9.49354 67.6286 9.63782 67.5805 9.88517C67.5083 10.1901 67.3802 10.4789 67.2026 10.7371C67.6487 10.588 68.1093 10.4867 68.5768 10.4348C68.8158 10.4156 69.055 10.4682 69.2639 10.586C69.4324 10.7277 69.5545 10.9168 69.6143 11.1288Z" fill="#010C08"/>
<path d="M68.8802 18.0066C68.7799 17.4777 68.825 16.9316 69.0107 16.4263C69.2102 15.8867 69.5243 15.3968 69.9314 14.9903C70.353 14.5405 70.8979 14.225 71.4979 14.0834C72.0341 13.9639 72.5929 13.9948 73.1126 14.1727C73.6052 14.338 74.0539 14.6128 74.4249 14.9766C74.8196 15.3552 75.0863 15.8476 75.1875 16.3851C75.2848 16.9118 75.2397 17.455 75.057 17.9585C74.8694 18.4745 74.5716 18.9434 74.1844 19.3327C73.7713 19.764 73.2489 20.0751 72.6728 20.2327C72.1401 20.3806 71.5772 20.3806 71.0445 20.2327C70.5237 20.0794 70.0507 19.7956 69.6703 19.4082C69.2674 19.0347 68.9912 18.5447 68.8802 18.0066ZM71.4017 19.8548C72.0144 19.6655 72.5618 19.3085 72.982 18.8242C73.4286 18.399 73.7941 17.8961 74.0607 17.3401C74.2697 16.9132 74.3689 16.4409 74.3493 15.966C74.32 15.5551 74.1416 15.1691 73.8477 14.8804C73.6981 14.7178 73.5077 14.5983 73.2962 14.5343C73.0848 14.4702 72.86 14.464 72.6453 14.5163C72.0601 14.6862 71.5356 15.0199 71.1338 15.4782C70.7079 15.9019 70.3529 16.3914 70.0826 16.9279C69.8507 17.3783 69.7305 17.8779 69.7321 18.3845C69.733 18.8003 69.8956 19.1995 70.1856 19.4976C70.3393 19.6583 70.5326 19.7759 70.746 19.8386C70.9594 19.9013 71.1855 19.9069 71.4017 19.8548Z" fill="#010C08"/>
<path d="M73.2007 22.9741C73.2557 22.9741 73.2832 22.9329 73.2969 22.9741C73.503 23.2696 73.6954 23.4276 73.874 23.4413C74.1763 23.4024 74.4606 23.2758 74.6917 23.0772L81.3838 18.4669C81.6192 18.3222 81.8264 18.136 81.9953 17.9172C82.039 17.8548 82.0625 17.7805 82.0625 17.7042C82.0625 17.628 82.039 17.5537 81.9953 17.4912C81.8528 17.3169 81.6717 17.1781 81.4662 17.0859C81.4662 17.0859 81.4662 17.024 81.4662 16.9759C81.4662 16.9278 81.5212 16.921 81.5487 16.9347L83.5 17.9791L83.5481 18.0203C83.5622 18.0603 83.5622 18.104 83.5481 18.144C83.5493 18.1655 83.5449 18.187 83.5352 18.2062C83.5256 18.2255 83.5111 18.242 83.4931 18.2539L75.2482 23.9566C74.9826 24.105 74.7655 24.3269 74.623 24.5956C74.6081 24.7192 74.62 24.8446 74.6579 24.9631C74.6959 25.0817 74.7589 25.1907 74.8428 25.2827C74.8428 25.2827 74.8428 25.3514 74.8016 25.3857C74.7604 25.4201 74.7123 25.427 74.6917 25.3857C74.5611 25.2002 74.4649 25.0491 74.3894 24.9323L73.9221 24.2452L73.4412 23.5581C73.3519 23.4482 73.2351 23.297 73.0977 23.0978C73.132 23.0359 73.1458 23.0085 73.2007 22.9741Z" fill="#010C08"/>
<path d="M75.8071 26.9867C75.8689 26.9867 75.8964 26.9523 75.9033 26.9867C76.0681 27.3165 76.2399 27.4951 76.4186 27.5294C76.7227 27.5388 77.0224 27.4549 77.2774 27.289L84.5123 23.6269C84.7672 23.516 84.9999 23.3601 85.1994 23.1665C85.2546 23.1119 85.2905 23.0408 85.3017 22.9639C85.3128 22.887 85.2986 22.8086 85.2612 22.7405C85.1426 22.5517 84.9829 22.392 84.794 22.2733C84.794 22.2733 84.794 22.2115 84.794 22.1703C84.794 22.129 84.8627 22.1222 84.8833 22.1703L86.6766 23.4757L86.7178 23.5169C86.732 23.5593 86.732 23.6051 86.7178 23.6475C86.7147 23.6687 86.707 23.6889 86.6951 23.7068C86.6832 23.7246 86.6675 23.7395 86.6491 23.7505L77.7171 28.2578C77.44 28.3676 77.2011 28.5563 77.0301 28.8005C76.9943 28.9219 76.9862 29.0497 77.0064 29.1745C77.0267 29.2994 77.0746 29.4181 77.1469 29.522C77.1469 29.522 77.1469 29.5907 77.0919 29.6182C77.0369 29.6456 76.9957 29.6182 76.982 29.6182C76.8789 29.4189 76.8033 29.254 76.7484 29.1235L76.3773 28.3539L75.9994 27.6256C75.8992 27.4633 75.8075 27.2959 75.7246 27.1241C75.7246 27.1241 75.7521 27.0141 75.8071 26.9867Z" fill="#010C08"/>
<path d="M79.604 38.3302C79.604 38.1791 79.604 38.0005 79.604 37.7806C79.604 37.5607 79.604 37.3271 79.5353 37.0935L79.4117 36.0698C79.3773 35.8843 79.3429 35.6369 79.3086 35.314C79.3086 35.314 79.3086 35.314 79.4048 35.2728C79.501 35.2315 79.4941 35.2728 79.501 35.2728C79.5148 35.5342 79.5704 35.7917 79.6659 36.0354C79.693 36.1107 79.7387 36.1779 79.7987 36.2308C79.8588 36.2836 79.9313 36.3204 80.0094 36.3377C80.2368 36.3762 80.4691 36.3762 80.6965 36.3377L87.9451 35.5407C88.1823 35.5282 88.4152 35.4723 88.6322 35.3758C88.7026 35.3399 88.7639 35.2884 88.8115 35.2254C88.8591 35.1623 88.8918 35.0892 88.907 35.0117C88.946 34.759 88.946 34.5017 88.907 34.249C88.907 34.249 88.907 34.2009 88.9964 34.2009C89.0857 34.2009 89.0925 34.2009 89.0994 34.2009L89.1613 34.9361C89.1887 35.3667 89.2162 35.7102 89.2437 35.9667C89.2849 36.3309 89.3399 36.7088 89.4155 37.0866C89.491 37.4645 89.5323 37.863 89.546 38.0142C89.6687 38.9435 89.5553 39.8886 89.2162 40.7625C88.9073 41.5561 88.384 42.2483 87.7047 42.7619C87.0159 43.2781 86.198 43.5943 85.3411 43.6757C84.4083 43.7924 83.4612 43.6645 82.5928 43.3047C81.7911 42.9698 81.097 42.4207 80.5866 41.7175C80.083 41.007 79.7707 40.1789 79.6796 39.3128C79.6315 39.0517 79.6109 38.7081 79.604 38.3302ZM80.6759 41.0786C81.1129 41.6172 81.6981 42.0161 82.3592 42.226C83.1657 42.4754 84.0168 42.5457 84.8533 42.4321C85.6956 42.3351 86.5117 42.0786 87.2581 41.6763C87.9128 41.3401 88.4655 40.8348 88.8589 40.2128C89.2235 39.6165 89.3738 38.9136 89.2849 38.2203C89.2565 37.8964 89.1944 37.5763 89.0994 37.2653C89.0419 37.0689 88.9117 36.9018 88.7353 36.7981C88.5196 36.7026 88.2803 36.6739 88.0482 36.7156L80.9919 37.492C80.8179 37.4947 80.6463 37.5334 80.4878 37.6055C80.3294 37.6776 80.1876 37.7817 80.0712 37.9111C79.8886 38.3014 79.8403 38.741 79.9338 39.1616C79.9969 39.847 80.2543 40.5001 80.6759 41.0442V41.0786Z" fill="#010C08"/>
<path d="M80.2437 47.8807C80.55 47.4366 80.97 47.083 81.4598 46.8569C81.9831 46.6159 82.5533 46.4938 83.1294 46.4997C83.7443 46.4815 84.351 46.6439 84.8746 46.9669C85.337 47.2648 85.7099 47.6828 85.9533 48.1761C86.1818 48.6425 86.3016 49.1546 86.3037 49.674C86.315 50.2193 86.1565 50.7548 85.8502 51.2061C85.5378 51.6334 85.1216 51.9739 84.641 52.1955C84.1442 52.428 83.6022 52.5476 83.0538 52.5459C82.455 52.558 81.864 52.4085 81.343 52.1131C80.8626 51.8399 80.4659 51.4408 80.1956 50.9588C79.9283 50.4778 79.791 49.9356 79.7971 49.3854C79.7932 48.8506 79.9487 48.3268 80.2437 47.8807ZM80.7109 50.9725C81.2784 51.2732 81.9181 51.4111 82.5591 51.371C83.1738 51.3831 83.7858 51.2854 84.3661 51.0825C84.83 50.9305 85.245 50.6578 85.5685 50.2923C85.8407 49.9857 85.9899 49.5893 85.9876 49.1793C85.9965 48.958 85.9465 48.7384 85.8426 48.5429C85.7388 48.3473 85.5849 48.1828 85.3967 48.0662C84.8643 47.7718 84.2587 47.6359 83.6516 47.6746C83.0377 47.6669 82.4269 47.7621 81.8446 47.9563C81.3563 48.1137 80.9149 48.39 80.5597 48.7601C80.2641 49.0556 80.0963 49.4553 80.0925 49.8732C80.0917 50.0943 80.1482 50.3118 80.2566 50.5045C80.365 50.6972 80.5215 50.8584 80.7109 50.9725Z" fill="#010C08"/>
<path d="M86.0082 64.3703C85.9395 64.3703 85.912 64.3703 85.912 64.3291C85.9167 64.2005 85.8933 64.0724 85.8435 63.9537C85.7936 63.8351 85.7185 63.7287 85.6234 63.642C85.3428 63.3963 85.0157 63.2094 84.6615 63.0923L80.0169 61.2716C79.9757 61.2716 79.9551 61.2098 79.9551 61.1067C79.9551 61.0036 79.9551 60.9555 80.0169 60.9487L83.8233 59.2859L80.0169 57.7813C79.9757 57.7813 79.9551 57.7194 79.9551 57.6232C79.9551 57.527 79.9551 57.4652 80.0169 57.4583L84.7852 55.3284C85.1089 55.2047 85.4123 55.0333 85.6853 54.82C85.7565 54.7557 85.8134 54.6773 85.8525 54.5897C85.8915 54.5022 85.9118 54.4074 85.912 54.3115C85.912 54.3115 85.912 54.2634 86.0082 54.2634C86.1044 54.2634 86.0975 54.2634 86.0975 54.3115C86.1057 54.458 86.1057 54.6048 86.0975 54.7513V55.4383V56.3934C86.0975 56.5376 86.0975 56.7438 86.0975 56.998C86.0975 56.998 86.0975 57.0392 86.0082 57.0392C85.9189 57.0392 85.8845 57.0049 85.8845 57.0049C85.8845 56.4552 85.7609 56.1804 85.5204 56.1804C85.4308 56.185 85.3437 56.2109 85.2662 56.2559L81.4392 58.0149L84.2493 59.0661L84.7852 58.8256C85.1064 58.6934 85.4127 58.5276 85.699 58.3309C85.7669 58.2751 85.8212 58.2048 85.8581 58.1251C85.895 58.0454 85.9134 57.9584 85.912 57.8706C85.912 57.8706 85.912 57.8706 86.0082 57.8706C86.1044 57.8706 86.0975 57.8706 86.0975 57.8706C86.1057 58.0125 86.1057 58.1547 86.0975 58.2966V58.9836V59.9524C86.0975 60.0967 86.0975 60.2959 86.0975 60.5433C86.0975 60.5433 86.0975 60.5433 86.0082 60.5433C85.9189 60.5433 85.912 60.5433 85.912 60.5433C85.912 60.0074 85.7815 59.7463 85.5341 59.7463C85.4512 59.7488 85.3695 59.7675 85.2937 59.8013L81.4392 61.5533L84.7234 62.8038C84.8805 62.8684 85.0482 62.9034 85.2181 62.9068C85.6784 62.9068 85.9051 62.5427 85.9051 61.8213C85.9051 61.8213 85.9051 61.7732 86.0013 61.7732C86.0975 61.7732 86.0907 61.7732 86.0907 61.8213C86.0907 62.0823 86.0907 62.2816 86.0907 62.4053V63.2916V63.8481C86.0996 64.0106 86.0996 64.1735 86.0907 64.3359C86.0907 64.3359 86.07 64.3703 86.0082 64.3703Z" fill="#010C08"/>
<path d="M80.0933 73.0069C80.0315 73.0069 80.004 73.0069 80.004 72.9588C80.004 72.7252 80.004 72.5328 80.004 72.3885V71.5778V70.767C80.004 70.6228 80.004 70.4304 80.004 70.1968C80.004 70.1968 80.004 70.1556 80.0933 70.1556C80.1827 70.1556 80.1895 70.1555 80.1895 70.1968C80.1746 70.3198 80.1859 70.4447 80.2226 70.5631C80.2593 70.6815 80.3206 70.7908 80.4025 70.8838C80.6735 71.0228 80.979 71.0801 81.282 71.0488H83.7486C84.2277 71.0923 84.7084 70.9841 85.1227 70.7396C85.2701 70.6244 85.3864 70.4741 85.4608 70.3025C85.5352 70.1309 85.5654 69.9434 85.5487 69.757C85.5451 69.4595 85.4697 69.1672 85.3288 68.9051C85.1784 68.6006 84.968 68.3295 84.7105 68.1081H81.282C80.9782 68.0747 80.6714 68.1346 80.4025 68.2798C80.2582 68.3898 80.1895 68.6302 80.1895 68.9669C80.1895 68.9669 80.1895 69.0081 80.0933 69.0081C79.9971 69.0081 80.004 69.0081 80.004 68.9669C80.004 68.7264 80.004 68.5341 80.004 68.3898V67.579V66.7545C80.004 66.6171 80.004 66.4316 80.004 66.198C80.004 66.198 80.004 66.1568 80.0933 66.1568C80.1827 66.1568 80.1895 66.1568 80.1895 66.198C80.1746 66.3211 80.1859 66.4459 80.2226 66.5643C80.2593 66.6827 80.3206 66.792 80.4025 66.8851C80.6735 67.024 80.979 67.0813 81.282 67.05H84.3601C84.6169 67.0659 84.8742 67.0285 85.1159 66.94C85.1872 66.9091 85.2473 66.8568 85.2879 66.7904C85.3285 66.724 85.3476 66.6467 85.3426 66.569C85.3185 66.2966 85.2439 66.0309 85.1227 65.7858C85.1227 65.7858 85.1227 65.7308 85.1983 65.717C85.2739 65.7033 85.2876 65.717 85.2945 65.717L86.2289 67.5447C86.2339 67.5742 86.2339 67.6044 86.2289 67.634C86.2289 67.7302 86.1121 67.8264 85.8716 67.9226C85.5756 68.025 85.2642 68.0762 84.951 68.0737C85.3387 68.3175 85.6646 68.6479 85.903 69.0389C86.1414 69.43 86.2859 69.871 86.3251 70.3273C86.3371 70.5613 86.2978 70.795 86.21 71.0122C86.1221 71.2294 85.9879 71.4248 85.8167 71.5847C85.4079 71.9026 84.8976 72.0613 84.3807 72.0313H81.282C80.9782 71.9979 80.6714 72.0578 80.4025 72.203C80.3206 72.2961 80.2593 72.4054 80.2226 72.5238C80.1859 72.6422 80.1746 72.767 80.1895 72.8901C80.1895 72.8901 80.162 73.0069 80.0933 73.0069Z" fill="#010C08"/>
<path d="M7.26758 88.0068C8.64829 88.0068 9.76758 86.8875 9.76758 85.5068C9.76758 84.1261 8.64829 83.0068 7.26758 83.0068C5.88687 83.0068 4.76758 84.1261 4.76758 85.5068C4.76758 86.8875 5.88687 88.0068 7.26758 88.0068Z" fill="#F8B242"/>
<path d="M84.0137 88.0068C85.3944 88.0068 86.5137 86.8875 86.5137 85.5068C86.5137 84.1261 85.3944 83.0068 84.0137 83.0068C82.633 83.0068 81.5137 84.1261 81.5137 85.5068C81.5137 86.8875 82.633 88.0068 84.0137 88.0068Z" fill="#F8B242"/>
<path d="M85.7817 99.7863C85.4892 99.9715 85.2292 100.204 85.0121 100.473C84.7299 100.827 84.4683 101.196 84.2289 101.58C83.8991 102.067 83.6174 102.459 83.3838 102.748C83.1361 103.044 82.8384 103.295 82.5043 103.49C82.13 103.702 81.7049 103.809 81.2744 103.799C80.7915 103.8 80.3171 103.672 79.9003 103.428C79.4774 103.168 79.1367 102.794 78.9178 102.349C78.6744 101.844 78.5543 101.288 78.5674 100.728C78.566 100.336 78.6168 99.9451 78.7185 99.5664C78.8023 99.2091 78.9488 98.8694 79.1514 98.5633C79.1771 98.5189 79.2153 98.483 79.2613 98.4602C79.3247 98.4465 79.3903 98.4465 79.4537 98.4602L81.7073 98.3091C81.7554 98.3091 81.776 98.3091 81.7898 98.3778C81.8035 98.4465 81.7898 98.4602 81.7417 98.474C81.0007 98.6739 80.3023 99.0068 79.6804 99.4565C79.4178 99.6431 79.2044 99.8906 79.0584 100.178C78.9124 100.465 78.8382 100.783 78.8422 101.105C78.8298 101.527 78.9742 101.938 79.2476 102.26C79.4203 102.429 79.6278 102.558 79.8556 102.639C80.0835 102.72 80.3261 102.75 80.5668 102.727C80.9882 102.717 81.3999 102.599 81.7623 102.383C82.093 102.207 82.3906 101.975 82.6417 101.696C82.9349 101.338 83.2057 100.962 83.4525 100.57C83.7685 100.109 84.0434 99.7451 84.2701 99.4771C84.5029 99.1965 84.7875 98.9632 85.1083 98.79C85.5045 98.586 85.9475 98.49 86.3926 98.5117C86.8377 98.5334 87.2692 98.6721 87.6436 98.9137C88.0173 99.182 88.3097 99.5481 88.4887 99.9718C88.6718 100.407 88.7652 100.874 88.7636 101.346C88.7746 101.959 88.6503 102.566 88.3994 103.125C88.381 103.187 88.344 103.241 88.2935 103.28C88.2431 103.32 88.1817 103.342 88.1177 103.345L86.1389 103.421C86.0977 103.421 86.0702 103.421 86.0634 103.345C86.0565 103.27 86.0634 103.263 86.1115 103.256C86.694 103.143 87.2463 102.909 87.733 102.569C87.9782 102.406 88.1773 102.183 88.3109 101.92C88.4445 101.658 88.5081 101.365 88.4956 101.071C88.5074 100.858 88.4709 100.644 88.3888 100.447C88.3068 100.249 88.1812 100.073 88.0215 99.9306C87.6835 99.6534 87.2559 99.5093 86.8191 99.5252C86.4559 99.515 86.0968 99.6053 85.7817 99.7863Z" fill="#010C08"/>
<path d="M79.0135 107.687C79.2998 107.26 79.7028 106.924 80.1747 106.719C80.6479 106.507 81.161 106.399 81.6793 106.403C82.3001 106.387 82.9118 106.554 83.4383 106.884C83.9076 107.189 84.2951 107.605 84.567 108.095C84.8388 108.585 84.9868 109.134 84.9979 109.694C85.0038 110.115 84.9022 110.532 84.7025 110.903C84.6449 111.054 84.5449 111.186 84.4146 111.282C84.2842 111.379 84.129 111.435 83.9673 111.446C83.8921 111.447 83.8174 111.433 83.7477 111.405C83.6781 111.376 83.6149 111.334 83.5619 111.281C83.502 111.225 83.4549 111.157 83.4241 111.081C83.3932 111.005 83.3793 110.923 83.3833 110.841C83.3833 110.518 83.5894 110.271 84.0017 110.106C84.1977 110.026 84.3754 109.907 84.5238 109.756C84.6398 109.586 84.6955 109.383 84.6819 109.178C84.6828 108.936 84.6198 108.698 84.4991 108.488C84.3785 108.278 84.2045 108.104 83.9948 107.983C83.4376 107.672 82.8048 107.522 82.1672 107.55C81.4072 107.517 80.6558 107.722 80.0166 108.134C79.7306 108.337 79.5009 108.609 79.3494 108.925C79.1979 109.241 79.1296 109.591 79.1509 109.941C79.1499 110.472 79.3237 110.989 79.6456 111.411C79.6406 111.444 79.6234 111.473 79.5975 111.494C79.5975 111.494 79.5357 111.494 79.5151 111.494C79.2085 111.192 78.9573 110.838 78.773 110.449C78.6127 110.076 78.5331 109.674 78.5394 109.268C78.5353 108.705 78.7005 108.155 79.0135 107.687Z" fill="#010C08"/>
<path d="M84.7573 118.104C84.7017 118.191 84.6258 118.263 84.536 118.315C84.4463 118.366 84.3454 118.395 84.242 118.399C84.0928 118.4 83.9484 118.347 83.8366 118.248C83.7812 118.198 83.7376 118.136 83.7091 118.067C83.6806 117.998 83.6678 117.924 83.6717 117.849C83.6705 117.764 83.6893 117.679 83.7267 117.602C83.7628 117.537 83.8067 117.477 83.8572 117.423C83.8907 117.394 83.9187 117.359 83.9396 117.32C84.0155 117.254 84.0825 117.177 84.1389 117.094C84.1881 117.011 84.212 116.915 84.2076 116.819C84.1985 116.681 84.1482 116.549 84.0633 116.441C83.8568 116.211 83.6265 116.004 83.3762 115.822H79.9821C79.7478 115.808 79.5132 115.846 79.295 115.932C79.2152 115.972 79.1453 116.029 79.0906 116.099C79.0359 116.169 78.9977 116.251 78.979 116.338C78.9076 116.625 78.8775 116.921 78.8896 117.217C78.8896 117.217 78.8896 117.265 78.7935 117.265C78.6973 117.265 78.6973 117.265 78.6973 117.217C78.6973 116.894 78.6973 116.633 78.6973 116.441V115.321V114.496C78.6973 114.359 78.6973 114.174 78.6973 113.94C78.6973 113.94 78.6973 113.892 78.7935 113.892C78.8896 113.892 78.8896 113.892 78.8896 113.94C78.8729 114.063 78.8833 114.188 78.9201 114.307C78.9569 114.426 79.0192 114.535 79.1026 114.627C79.3715 114.772 79.6783 114.832 79.9821 114.799H83.0602C83.3148 114.816 83.5701 114.778 83.8091 114.689C83.8823 114.658 83.9441 114.605 83.986 114.537C84.0278 114.469 84.0476 114.39 84.0427 114.311C84.0184 114.041 83.9439 113.777 83.8228 113.535C83.8228 113.535 83.8228 113.48 83.8984 113.466C83.974 113.452 83.9809 113.466 83.9946 113.466L84.9222 115.293C84.9308 115.323 84.9308 115.354 84.9222 115.383C84.9222 115.479 84.8054 115.575 84.5718 115.664C84.2785 115.769 83.9694 115.823 83.658 115.822C84.0236 116.106 84.3576 116.429 84.6542 116.784C84.8158 116.978 84.9099 117.219 84.9222 117.471C84.9321 117.694 84.8746 117.914 84.7573 118.104Z" fill="#010C08"/>
<path d="M78.9731 121.766C79.2794 121.322 79.6995 120.968 80.1893 120.742C80.7121 120.5 81.2826 120.378 81.8589 120.385C82.474 120.365 83.0813 120.527 83.604 120.852C84.0679 121.146 84.4394 121.566 84.6759 122.061C84.9095 122.526 85.0319 123.039 85.0331 123.559C85.0433 124.106 84.8824 124.641 84.5728 125.091C84.2688 125.532 83.8508 125.881 83.3635 126.101C82.8623 126.333 82.3145 126.446 81.7627 126.431C81.1661 126.442 80.5776 126.293 80.0587 125.998C79.5812 125.721 79.1854 125.323 78.9113 124.844C78.642 124.361 78.5023 123.817 78.5059 123.264C78.5053 122.729 78.6683 122.206 78.9731 121.766ZM79.4404 124.851C80.007 125.154 80.6474 125.292 81.2886 125.249C81.9032 125.261 82.5151 125.163 83.0956 124.961C83.5587 124.811 83.9736 124.541 84.298 124.178C84.5689 123.868 84.7179 123.47 84.7171 123.058C84.7254 122.838 84.6751 122.619 84.5713 122.425C84.4675 122.23 84.3139 122.067 84.1262 121.952C83.5938 121.657 82.9882 121.521 82.381 121.56C81.7654 121.551 81.1525 121.644 80.5672 121.835C80.0851 121.987 79.6468 122.254 79.2892 122.611C78.9936 122.907 78.8258 123.306 78.822 123.724C78.8142 123.95 78.8675 124.174 78.9763 124.373C79.0851 124.571 79.2454 124.736 79.4404 124.851Z" fill="#010C08"/>
<path d="M78.8285 128.609C78.8903 128.609 78.9178 128.609 78.9178 128.643C78.8915 128.769 78.892 128.899 78.9192 129.024C78.9464 129.15 78.9998 129.268 79.0758 129.372C79.3356 129.532 79.6364 129.613 79.9415 129.605L88.0353 130.237C88.3078 130.279 88.5859 130.265 88.8529 130.196C88.9283 130.179 88.9958 130.137 89.0454 130.077C89.0949 130.018 89.1239 129.944 89.1277 129.866C89.1274 129.642 89.0732 129.42 88.9697 129.221C88.9697 129.186 88.9697 129.166 89.0522 129.152C89.1346 129.138 89.1346 129.152 89.1415 129.152L90.0003 131.213V131.275C89.995 131.317 89.9756 131.356 89.9454 131.385C89.9315 131.403 89.9137 131.417 89.8934 131.426C89.8732 131.436 89.851 131.44 89.8286 131.44L79.8385 130.677C79.5399 130.624 79.2324 130.658 78.9522 130.773C78.8604 130.862 78.7889 130.969 78.7427 131.088C78.6964 131.206 78.6765 131.333 78.6842 131.461C78.6842 131.502 78.6842 131.522 78.588 131.515C78.4918 131.509 78.4918 131.515 78.4987 131.447C78.4987 131.227 78.4987 131.041 78.5537 130.911L78.6361 130.059L78.6842 129.234C78.6842 129.097 78.6842 128.905 78.6842 128.664C78.7323 128.609 78.7666 128.602 78.8285 128.609Z" fill="#010C08"/>
<path d="M78.3269 133.384C78.3888 133.384 78.4162 133.384 78.4162 133.432C78.3697 133.552 78.3504 133.681 78.3599 133.81C78.3694 133.938 78.4075 134.063 78.4712 134.174C78.7006 134.375 78.9861 134.499 79.2888 134.532L87.2177 136.284C87.4838 136.356 87.7604 136.381 88.0353 136.359C88.113 136.351 88.186 136.318 88.2431 136.265C88.3002 136.212 88.3382 136.141 88.3513 136.064C88.3855 135.833 88.3643 135.598 88.2895 135.377C88.2895 135.343 88.3239 135.329 88.3788 135.322C88.4338 135.315 88.4613 135.322 88.4681 135.356L89.0316 137.493V137.555C89.0203 137.599 88.9935 137.638 88.956 137.665C88.938 137.674 88.9179 137.679 88.8976 137.679C88.8772 137.679 88.8571 137.674 88.8392 137.665L79.0483 135.521C78.7599 135.43 78.4505 135.43 78.162 135.521C77.9971 135.597 77.8735 135.81 77.7979 136.153C77.7979 136.194 77.7635 136.208 77.6948 136.194C77.633 136.194 77.6055 136.153 77.6124 136.119C77.6605 135.892 77.7086 135.72 77.7498 135.59L77.949 134.758L78.1071 133.948C78.1071 133.81 78.162 133.625 78.217 133.384C78.2239 133.371 78.2582 133.371 78.3269 133.384Z" fill="#010C08"/>
<path d="M74.1272 144.556L74.4433 144.116C74.5738 143.938 74.7044 143.738 74.8487 143.518L75.3915 142.639L75.79 141.952C75.79 141.952 75.838 141.952 75.8861 141.952C75.9342 141.952 75.9617 142.014 75.9549 142.027C75.8056 142.24 75.6854 142.471 75.5976 142.715C75.5731 142.791 75.5672 142.872 75.5803 142.95C75.5935 143.029 75.6253 143.104 75.6732 143.168C75.8266 143.349 76.0102 143.503 76.2159 143.622L82.3996 147.579C82.5895 147.719 82.8039 147.821 83.0317 147.881C83.1086 147.896 83.1877 147.893 83.2636 147.875C83.3395 147.856 83.4104 147.82 83.4715 147.771C83.659 147.598 83.8209 147.399 83.9524 147.181C83.9524 147.181 84.0005 147.181 84.0555 147.181C84.1104 147.181 84.1242 147.242 84.1104 147.27L83.6982 147.881C83.4508 148.232 83.2516 148.513 83.1142 148.726C82.9768 148.939 82.7225 149.365 82.5439 149.702C82.3653 150.039 82.1454 150.389 82.063 150.513C81.5706 151.311 80.8854 151.973 80.0704 152.437C79.3312 152.859 78.4893 153.069 77.6382 153.041C76.7787 153.001 75.9459 152.73 75.2266 152.258C74.4207 151.762 73.7595 151.063 73.3096 150.231C72.8984 149.464 72.7059 148.599 72.7531 147.73C72.8084 146.861 73.0877 146.021 73.5638 145.291C73.6944 145.133 73.8936 144.858 74.1272 144.556ZM73.2478 147.339C73.2449 148.032 73.4482 148.712 73.8318 149.29C74.3021 149.991 74.9186 150.581 75.6388 151.021C76.3484 151.491 77.1414 151.819 77.9749 151.99C78.6945 152.147 79.4435 152.102 80.1391 151.86C80.7982 151.627 81.3581 151.176 81.7263 150.582C81.91 150.313 82.0644 150.025 82.1866 149.723C82.2585 149.535 82.2585 149.327 82.1866 149.139C82.0773 148.923 81.9047 148.745 81.6919 148.63L75.7144 144.783C75.5789 144.674 75.422 144.595 75.2538 144.551C75.0856 144.507 74.9101 144.499 74.7387 144.528C74.4708 144.604 74.1685 144.899 73.8387 145.415C73.4611 145.986 73.2559 146.654 73.2478 147.339Z" fill="#010C08"/>
<path d="M68.7072 151.976C69.2419 151.906 69.7858 151.982 70.2806 152.196C70.8079 152.424 71.2775 152.766 71.6548 153.199C72.0843 153.642 72.3694 154.205 72.4724 154.814C72.5634 155.354 72.5015 155.908 72.2937 156.415C72.1009 156.9 71.8002 157.335 71.4143 157.686C71.017 158.06 70.5124 158.3 69.9714 158.373C69.439 158.441 68.8981 158.365 68.4049 158.153C67.9001 157.939 67.4494 157.615 67.0857 157.205C66.676 156.769 66.3932 156.23 66.2681 155.645C66.1522 155.107 66.183 154.547 66.3574 154.024C66.5324 153.493 66.8454 153.019 67.2643 152.65C67.664 152.281 68.1681 152.046 68.7072 151.976ZM66.7216 154.388C66.8754 155.013 67.2015 155.582 67.6628 156.03C68.0643 156.497 68.546 156.888 69.0851 157.184C69.5033 157.424 69.9772 157.55 70.4592 157.549C70.8703 157.543 71.2657 157.39 71.5723 157.116C71.7424 156.975 71.8716 156.791 71.9465 156.583C72.0214 156.375 72.0393 156.151 71.9983 155.934C71.861 155.342 71.5584 154.801 71.1257 154.374C70.718 153.912 70.2376 153.52 69.7035 153.213C69.2709 152.951 68.7795 152.802 68.2743 152.78C68.0689 152.767 67.8629 152.795 67.6684 152.863C67.4738 152.93 67.2944 153.035 67.1407 153.172C66.9701 153.32 66.8415 153.51 66.768 153.724C66.6944 153.937 66.6784 154.166 66.7216 154.388Z" fill="#010C08"/>
<path d="M58.003 165.656C57.9756 165.601 57.9756 165.567 58.003 165.553C58.1133 165.498 58.2111 165.421 58.2903 165.326C58.3695 165.231 58.4284 165.122 58.4634 165.003C58.5538 164.642 58.5725 164.266 58.5183 163.897L58.058 158.923C58.058 158.882 58.058 158.84 58.1748 158.799C58.2916 158.758 58.3191 158.744 58.3466 158.799L61.569 161.444L61.1979 157.349C61.1979 157.308 61.1979 157.267 61.3147 157.226C61.4315 157.184 61.459 157.171 61.4865 157.226L65.5403 160.531C65.7951 160.766 66.0848 160.961 66.3991 161.108C66.4881 161.14 66.5829 161.154 66.6775 161.148C66.7721 161.142 66.8645 161.117 66.9488 161.073C66.9488 161.073 67.0037 161.073 67.0312 161.142C67.0587 161.211 67.0312 161.231 67.0312 161.245L66.6258 161.431L66.0006 161.726L65.1555 162.173C65.0318 162.248 64.8532 162.338 64.6264 162.454C64.599 162.454 64.5715 162.434 64.544 162.393C64.544 162.338 64.544 162.296 64.544 162.289C65.0387 162.042 65.2311 161.808 65.1143 161.602C65.0692 161.526 65.0083 161.461 64.9356 161.41L61.6377 158.724L61.9331 161.692L62.3866 162.063C62.6481 162.288 62.9338 162.484 63.2386 162.647C63.3177 162.686 63.4046 162.706 63.4928 162.706C63.5809 162.706 63.6679 162.686 63.747 162.647C63.747 162.647 63.747 162.647 63.8157 162.722C63.8844 162.798 63.85 162.812 63.8157 162.818L63.4241 162.997L62.84 163.272L61.9812 163.725C61.8575 163.801 61.6789 163.89 61.4659 164C61.4659 164 61.4247 164 61.3972 163.932C61.3697 163.863 61.3972 163.842 61.3972 163.835C61.8713 163.595 62.0843 163.361 61.94 163.148C61.8977 163.078 61.8443 163.016 61.7819 162.963L58.484 160.311L58.8413 163.808C58.854 163.975 58.8983 164.138 58.9718 164.289C59.1779 164.708 59.6108 164.749 60.2566 164.419C60.2566 164.419 60.3116 164.419 60.3391 164.488C60.3666 164.557 60.3391 164.577 60.3391 164.591C60.1055 164.708 59.9268 164.797 59.81 164.845L59.013 165.223L58.5183 165.491C58.3808 165.577 58.2386 165.655 58.0924 165.725C58.0924 165.725 58.0305 165.718 58.003 165.656Z" fill="#010C08"/>
<path d="M47.4629 161.822C47.4629 161.761 47.4629 161.726 47.4629 161.726C47.6965 161.678 47.882 161.651 48.0263 161.63L48.8233 161.493L49.6134 161.321L50.1768 161.197C50.1768 161.197 50.2249 161.197 50.2387 161.28C50.2524 161.362 50.2387 161.376 50.2387 161.383C50.1129 161.391 49.9903 161.426 49.879 161.485C49.7677 161.545 49.6701 161.627 49.5928 161.726C49.5057 162.018 49.5057 162.328 49.5928 162.619L50.0669 165.038C50.122 165.505 50.3158 165.946 50.6234 166.302C50.7659 166.425 50.9367 166.509 51.1203 166.549C51.3038 166.589 51.4944 166.582 51.6747 166.529C51.9665 166.468 52.2397 166.338 52.4717 166.151C52.7459 165.944 52.979 165.688 53.1587 165.395L52.5129 162.056C52.4864 161.754 52.3691 161.466 52.1762 161.232C52.0651 161.167 51.9414 161.126 51.8134 161.113C51.6854 161.1 51.5561 161.115 51.4342 161.156C51.4342 161.156 51.3861 161.156 51.3792 161.074C51.3723 160.991 51.3792 160.977 51.3792 160.97L51.9495 160.874L52.7465 160.737L53.5504 160.565L54.0932 160.441C54.0932 160.441 54.1413 160.441 54.155 160.531C54.1687 160.62 54.155 160.627 54.155 160.627C54.029 160.634 53.9061 160.669 53.7947 160.728C53.6832 160.788 53.5858 160.87 53.5092 160.97C53.4187 161.261 53.4187 161.573 53.5092 161.864L54.0932 164.894C54.1324 165.137 54.2188 165.37 54.3474 165.581C54.3925 165.645 54.4561 165.694 54.5298 165.721C54.6035 165.748 54.6837 165.752 54.7596 165.732C55.0086 165.653 55.2413 165.529 55.4467 165.368C55.4467 165.368 55.5017 165.368 55.5292 165.436C55.5566 165.505 55.5292 165.512 55.5292 165.533L53.9214 166.797C53.8919 166.803 53.8616 166.803 53.8321 166.797C53.7359 166.797 53.6191 166.721 53.4817 166.501C53.3285 166.229 53.2195 165.935 53.1587 165.629C52.987 166.05 52.7212 166.426 52.3819 166.728C52.0425 167.031 51.6384 167.252 51.2006 167.374C50.9736 167.432 50.7365 167.438 50.507 167.391C50.2774 167.345 50.0613 167.247 49.8745 167.106C49.4893 166.767 49.2443 166.297 49.1874 165.787L48.5966 162.764C48.5717 162.462 48.4568 162.175 48.2668 161.939C48.1562 161.873 48.0324 161.832 47.9042 161.819C47.7759 161.806 47.6464 161.821 47.5247 161.864C47.5247 161.864 47.4766 161.884 47.4629 161.822Z" fill="#010C08"/>
<path d="M38.3185 168.343C38.1931 168.02 38.0116 167.722 37.7825 167.463C37.4849 167.125 37.1683 166.804 36.8344 166.501C36.4793 166.174 36.1421 165.828 35.8244 165.464C35.5742 165.171 35.3787 164.836 35.2472 164.474C35.0994 164.068 35.0661 163.628 35.151 163.203C35.2316 162.718 35.4431 162.265 35.7625 161.891C36.0894 161.519 36.5164 161.25 36.9924 161.115C37.5332 160.959 38.1034 160.936 38.6551 161.046C39.0401 161.109 39.4146 161.225 39.7682 161.389C40.1057 161.536 40.4149 161.741 40.682 161.994C40.7201 162.027 40.7485 162.07 40.7645 162.118C40.7814 162.181 40.7814 162.247 40.7645 162.31L40.5377 164.536C40.5377 164.577 40.5102 164.598 40.4553 164.598C40.4003 164.598 40.3728 164.598 40.3728 164.536C40.2964 163.78 40.0871 163.042 39.7545 162.358C39.615 162.068 39.4072 161.815 39.1487 161.622C38.8902 161.43 38.5888 161.303 38.2704 161.252C38.051 161.197 37.822 161.191 37.6001 161.235C37.3782 161.28 37.169 161.373 36.9879 161.509C36.8068 161.645 36.6583 161.819 36.5533 162.019C36.4483 162.22 36.3894 162.441 36.3809 162.667C36.3024 163.085 36.3308 163.515 36.4634 163.918C36.5853 164.278 36.7715 164.613 37.013 164.907C37.3153 165.259 37.6388 165.592 37.9818 165.904C38.3132 166.216 38.6274 166.546 38.9231 166.893C39.1562 167.171 39.3355 167.49 39.4521 167.834C39.5721 168.222 39.591 168.633 39.5071 169.03C39.4342 169.512 39.2105 169.96 38.8681 170.308C38.5432 170.635 38.1304 170.862 37.6795 170.96C37.2284 171.064 36.761 171.076 36.3053 170.995C35.6984 170.892 35.1213 170.658 34.6151 170.308C34.5562 170.281 34.5079 170.235 34.478 170.178C34.4481 170.121 34.4383 170.055 34.4502 169.992L34.7182 168.033C34.719 168.024 34.7218 168.014 34.7265 168.006C34.7312 167.997 34.7377 167.99 34.7455 167.984C34.7533 167.978 34.7622 167.974 34.7717 167.972C34.7812 167.97 34.7911 167.97 34.8006 167.972C34.8103 167.968 34.8206 167.967 34.8307 167.969C34.8407 167.97 34.8503 167.974 34.8585 167.98C34.8666 167.987 34.8731 167.995 34.8774 168.004C34.8817 168.013 34.8837 168.023 34.8831 168.033C34.8915 168.626 35.0274 169.209 35.2816 169.744C35.4031 170.018 35.5936 170.256 35.8344 170.434C36.0753 170.612 36.3583 170.725 36.6557 170.761C36.8637 170.812 37.0807 170.814 37.2895 170.766C37.4983 170.719 37.693 170.623 37.8581 170.486C38.192 170.204 38.4077 169.807 38.4628 169.373C38.5088 169.023 38.459 168.667 38.3185 168.343Z" fill="#010C08"/>
<path d="M32.2928 159.809C32.5751 160.239 32.7343 160.738 32.7531 161.252C32.7629 161.77 32.667 162.284 32.4714 162.764C32.2468 163.345 31.8547 163.847 31.3446 164.206C30.8855 164.528 30.3535 164.729 29.7968 164.793C29.2401 164.856 28.6763 164.78 28.1566 164.571C27.7667 164.415 27.4218 164.165 27.1535 163.842C27.0358 163.731 26.9525 163.588 26.9135 163.431C26.8746 163.274 26.8815 163.109 26.9336 162.956C26.9619 162.883 27.0051 162.816 27.0603 162.761C27.1155 162.705 27.1816 162.661 27.2544 162.632C27.3273 162.603 27.4054 162.589 27.4837 162.592C27.5621 162.594 27.6392 162.613 27.71 162.647C27.8651 162.721 27.9922 162.844 28.0726 162.996C28.153 163.148 28.1824 163.322 28.1566 163.492C28.1517 163.705 28.194 163.916 28.2803 164.11C28.3922 164.282 28.5595 164.411 28.7544 164.474C28.9776 164.574 29.2241 164.61 29.4666 164.579C29.7091 164.547 29.9382 164.449 30.1285 164.296C30.6333 163.906 31.0149 163.379 31.2278 162.777C31.5494 162.087 31.6455 161.313 31.5027 160.565C31.4173 160.224 31.2463 159.911 31.0058 159.655C30.7653 159.398 30.4633 159.208 30.1285 159.101C29.6391 158.897 29.0961 158.858 28.5826 158.992C28.5556 158.974 28.536 158.947 28.5276 158.916C28.5276 158.875 28.5276 158.854 28.562 158.847C28.957 158.673 29.3812 158.575 29.8125 158.559C30.2955 158.555 30.7723 158.667 31.2036 158.884C31.6349 159.102 32.0083 159.419 32.2928 159.809Z" fill="#010C08"/>
<path d="M20.406 159.899C20.3641 159.804 20.3459 159.701 20.3531 159.598C20.3603 159.495 20.3926 159.395 20.4472 159.308C20.5255 159.183 20.6482 159.092 20.7907 159.053C20.8622 159.033 20.9373 159.031 21.0101 159.045C21.0829 159.059 21.1513 159.09 21.2099 159.136C21.2839 159.179 21.3454 159.241 21.3885 159.315C21.4248 159.379 21.4525 159.449 21.4709 159.521C21.4795 159.565 21.4909 159.609 21.5053 159.651C21.5227 159.75 21.5503 159.847 21.5877 159.94C21.6276 160.027 21.692 160.101 21.7733 160.153C21.8967 160.221 22.0382 160.25 22.1786 160.235C22.4764 160.2 22.7692 160.131 23.0512 160.029L24.9269 157.192C25.0659 157.003 25.1641 156.788 25.2155 156.559C25.2242 156.471 25.214 156.382 25.1856 156.298C25.1572 156.214 25.1112 156.137 25.0506 156.072C24.8479 155.856 24.6168 155.668 24.3635 155.515C24.3635 155.515 24.3635 155.46 24.3635 155.412C24.3635 155.364 24.4254 155.336 24.4529 155.357C24.7208 155.536 24.9338 155.68 25.0918 155.797L26.0194 156.429L26.7065 156.869C26.8301 156.937 26.9882 157.033 27.1805 157.164C27.1805 157.164 27.1805 157.212 27.1805 157.267C27.1805 157.322 27.1187 157.336 27.0912 157.322C26.9991 157.239 26.8897 157.177 26.7708 157.142C26.652 157.106 26.5268 157.097 26.4041 157.116C26.2324 157.171 26.0263 157.384 25.7789 157.755L24.0475 160.325C23.8945 160.529 23.7846 160.763 23.7246 161.012C23.7117 161.09 23.7233 161.17 23.7577 161.241C23.7922 161.313 23.8478 161.372 23.9169 161.41C24.1542 161.542 24.4162 161.624 24.6865 161.651C24.6865 161.651 24.6865 161.699 24.6865 161.754C24.6865 161.809 24.6452 161.829 24.6178 161.816L22.5565 161.589C22.5296 161.597 22.501 161.597 22.4741 161.589C22.3916 161.534 22.371 161.39 22.426 161.142C22.4984 160.839 22.624 160.55 22.797 160.29C22.3512 160.44 21.8905 160.542 21.4228 160.593C21.1725 160.619 20.9201 160.566 20.7014 160.441C20.5531 160.292 20.4505 160.104 20.406 159.899Z" fill="#010C08"/>
<path d="M21.1286 153.007C21.2322 153.538 21.187 154.087 20.998 154.594C20.8012 155.135 20.4867 155.626 20.0773 156.03C19.6542 156.478 19.1099 156.793 18.5108 156.937C17.9743 157.053 17.4166 157.022 16.8962 156.848C16.4022 156.682 15.9531 156.405 15.5839 156.037C15.1931 155.669 14.9265 155.189 14.8212 154.663C14.7261 154.136 14.7735 153.592 14.9586 153.09C15.1401 152.571 15.4387 152.1 15.8312 151.715C16.2432 151.285 16.7626 150.972 17.3359 150.808C17.8686 150.661 18.4316 150.661 18.9643 150.808C19.4863 150.959 19.96 151.243 20.3384 151.633C20.7389 151.997 21.0152 152.478 21.1286 153.007ZM18.6139 151.166C17.9988 151.354 17.4488 151.711 17.0267 152.196C16.5873 152.626 16.2247 153.128 15.9549 153.68C15.7413 154.106 15.6419 154.579 15.6663 155.055C15.6962 155.464 15.8717 155.849 16.161 156.14C16.3129 156.302 16.5047 156.42 16.7169 156.484C16.9291 156.548 17.1545 156.555 17.3703 156.504C17.9526 156.332 18.4743 155.999 18.8749 155.542C19.3029 155.118 19.658 154.626 19.9262 154.086C20.163 153.639 20.2857 153.141 20.2835 152.636C20.2847 152.429 20.2447 152.224 20.1656 152.033C20.0866 151.842 19.9701 151.669 19.8231 151.523C19.6696 151.364 19.4776 151.247 19.2656 151.185C19.0537 151.122 18.8291 151.116 18.6139 151.166Z" fill="#010C08"/>
<path d="M16.8176 148.053C16.7626 148.087 16.7352 148.101 16.7214 148.053C16.5153 147.758 16.3229 147.6 16.1374 147.586C15.8356 147.626 15.5518 147.753 15.3198 147.95L8.63455 152.56C8.3991 152.705 8.19191 152.891 8.02305 153.11C7.97625 153.171 7.95088 153.246 7.95088 153.323C7.95088 153.4 7.97625 153.475 8.02305 153.536C8.16552 153.71 8.34666 153.849 8.5521 153.941C8.5521 153.941 8.5521 154.003 8.5521 154.051C8.5521 154.099 8.49026 154.106 8.46965 154.092L6.51148 153.048L6.47026 153.007C6.46154 152.987 6.45703 152.966 6.45703 152.945C6.45703 152.924 6.46154 152.903 6.47026 152.883C6.46904 152.862 6.47348 152.84 6.48312 152.821C6.49276 152.802 6.50728 152.785 6.52522 152.773L14.7701 147.071C15.0357 146.922 15.2528 146.7 15.3954 146.432C15.4103 146.308 15.3984 146.183 15.3604 146.064C15.3225 145.945 15.2594 145.836 15.1755 145.744C15.1755 145.744 15.1755 145.676 15.2167 145.641C15.258 145.607 15.306 145.6 15.3267 145.641C15.4572 145.827 15.5534 145.978 15.6221 146.095L16.0962 146.782L16.5771 147.469C16.6665 147.579 16.7764 147.73 16.9207 147.929C16.9207 147.929 16.8863 147.971 16.8176 148.053Z" fill="#010C08"/>
<path d="M14.2095 144.034C14.1477 144.034 14.1202 144.034 14.1064 144.034C13.9484 143.711 13.7766 143.532 13.598 143.491C13.2937 143.488 12.9952 143.574 12.7391 143.738L5.49737 147.387C5.2425 147.497 5.00974 147.653 4.8103 147.847C4.75509 147.902 4.71918 147.973 4.70802 148.05C4.69687 148.126 4.71106 148.205 4.74846 148.273C4.86711 148.462 5.0268 148.622 5.21567 148.74C5.21567 148.74 5.21567 148.802 5.21567 148.843C5.21567 148.884 5.14696 148.891 5.11948 148.843L3.33308 147.538L3.29186 147.49C3.27771 147.45 3.27771 147.406 3.29186 147.366C3.30286 147.323 3.32993 147.286 3.36744 147.263L12.2994 142.763C12.5775 142.651 12.8164 142.46 12.9865 142.213C13.0179 142.097 13.0237 141.975 13.0036 141.857C12.9834 141.738 12.9377 141.625 12.8697 141.526C12.8697 141.485 12.8697 141.457 12.9247 141.43C12.9796 141.402 13.0208 141.43 13.0346 141.43C13.1376 141.629 13.2132 141.794 13.2682 141.924L13.6392 142.694L14.0171 143.422C14.0927 143.539 14.182 143.711 14.2919 143.931C14.2851 143.979 14.2645 143.999 14.2095 144.034Z" fill="#010C08"/>
<path d="M10.4159 132.697C10.4159 132.848 10.4159 133.027 10.4159 133.247C10.4159 133.467 10.4502 133.7 10.4777 133.934L10.6082 134.958C10.6082 135.143 10.6701 135.39 10.7113 135.713C10.7113 135.713 10.6769 135.713 10.6151 135.755C10.5533 135.796 10.5258 135.755 10.5189 135.755C10.5016 135.494 10.4461 135.237 10.354 134.992C10.3248 134.918 10.2785 134.852 10.2187 134.799C10.159 134.747 10.0876 134.709 10.0105 134.69C9.78306 134.651 9.55081 134.651 9.3234 134.69L2.06102 135.487C1.82384 135.499 1.59097 135.555 1.37394 135.652C1.30356 135.687 1.24226 135.739 1.19465 135.802C1.14705 135.865 1.11438 135.938 1.09911 136.016C1.05657 136.268 1.05657 136.526 1.09911 136.778C1.09911 136.778 1.09911 136.826 1.00979 136.833C0.920471 136.84 0.9136 136.833 0.906729 136.833L0.851763 136.05C0.851763 135.617 0.796797 135.274 0.769314 135.026C0.72809 134.655 0.673124 134.277 0.597545 133.899C0.521967 133.522 0.480742 133.13 0.46013 132.972C0.343442 132.042 0.459115 131.098 0.796797 130.224C1.10571 129.43 1.62902 128.738 2.30836 128.224C3.00017 127.716 3.81709 127.405 4.6719 127.324C5.60468 127.207 6.55177 127.335 7.4202 127.695C8.22108 128.028 8.91338 128.578 9.41959 129.282C9.92808 129.991 10.243 130.82 10.3334 131.687C10.3815 131.976 10.4021 132.319 10.4159 132.697ZM9.34401 129.949C8.90561 129.412 8.3209 129.013 7.66068 128.801C6.85423 128.552 6.00305 128.482 5.1666 128.595C4.31958 128.691 3.49864 128.947 2.74809 129.351C2.09124 129.684 1.53773 130.19 1.14721 130.815C0.782612 131.411 0.632342 132.114 0.721219 132.807C0.749602 133.131 0.811777 133.451 0.906729 133.762C0.963744 133.957 1.09108 134.123 1.26401 134.229C1.48022 134.323 1.71891 134.351 1.95108 134.312L9.01422 133.535C9.18768 133.535 9.35907 133.498 9.51674 133.425C9.67442 133.353 9.81468 133.248 9.92803 133.116C10.1171 132.728 10.168 132.287 10.0723 131.866C10.0133 131.182 9.76066 130.529 9.34401 129.983V129.949Z" fill="#010C08"/>
<path d="M9.77728 123.147C9.47099 123.591 9.05096 123.944 8.56116 124.171C8.03789 124.412 7.46767 124.534 6.89157 124.528C6.27668 124.546 5.66995 124.384 5.14639 124.061C4.68233 123.765 4.30904 123.346 4.06769 122.851C3.83917 122.385 3.71936 121.873 3.71728 121.354C3.70688 120.808 3.86526 120.273 4.17075 119.821C4.47802 119.382 4.89496 119.032 5.38 118.804C5.87672 118.572 6.41873 118.452 6.96714 118.454C7.56595 118.442 8.15695 118.591 8.67796 118.887C9.15645 119.16 9.55091 119.559 9.81851 120.041C10.0899 120.521 10.2298 121.064 10.2239 121.615C10.2341 122.159 10.0783 122.693 9.77728 123.147ZM9.31007 120.055C8.74147 119.758 8.10215 119.622 7.46184 119.663C6.84535 119.65 6.23131 119.745 5.64796 119.945C5.18557 120.096 4.77251 120.369 4.45245 120.735C4.18039 121.045 4.03127 121.443 4.03333 121.855C4.01793 122.081 4.06489 122.307 4.16909 122.508C4.27329 122.709 4.43072 122.878 4.62422 122.996C5.15638 123.291 5.76215 123.427 6.36939 123.387C6.98317 123.394 7.59384 123.299 8.1764 123.106C8.66308 122.948 9.10409 122.675 9.46123 122.309C9.75686 122.013 9.92464 121.613 9.92844 121.195C9.93656 120.967 9.88349 120.741 9.77475 120.541C9.66601 120.34 9.50557 120.173 9.31007 120.055Z" fill="#010C08"/>
<path d="M4.01349 106.657C4.0822 106.657 4.10968 106.657 4.10968 106.698C4.10719 106.826 4.1309 106.953 4.17935 107.071C4.2278 107.189 4.29996 107.296 4.39138 107.386C4.68182 107.608 5.01004 107.775 5.36016 107.88L10.0048 109.701C10.046 109.701 10.0666 109.756 10.0666 109.866C10.0666 109.962 10.0666 110.017 10.0048 110.024L6.18465 111.748L9.99105 113.246C10.0323 113.246 10.0529 113.308 10.0529 113.404C10.0529 113.5 10.0529 113.562 9.99105 113.569L5.21587 115.699C4.89379 115.826 4.59088 115.997 4.3158 116.208C4.24588 116.272 4.19022 116.351 4.15236 116.439C4.11451 116.526 4.0953 116.621 4.09594 116.716C4.09594 116.716 4.09594 116.764 3.99975 116.764C3.90356 116.764 3.91043 116.764 3.91043 116.716C3.90225 116.57 3.90225 116.423 3.91043 116.276V115.589V114.634C3.91043 114.49 3.91043 114.291 3.91043 114.03C3.91043 114.03 3.91043 113.988 3.99975 113.988C4.08907 113.988 4.09594 113.988 4.09594 114.03C4.09594 114.579 4.21961 114.854 4.46009 114.854C4.54847 114.848 4.63479 114.824 4.71431 114.785L8.53445 113.02L5.78615 111.941L5.24336 112.181C4.92489 112.315 4.62097 112.48 4.33642 112.676C4.2682 112.731 4.21355 112.802 4.17664 112.882C4.13973 112.961 4.12152 113.048 4.12342 113.136C4.12342 113.136 4.12342 113.136 4.02723 113.136C3.93104 113.136 3.93791 113.136 3.93791 113.136C3.92969 112.994 3.92969 112.852 3.93791 112.71V112.065V111.089C3.93791 110.945 3.93791 110.745 3.93791 110.505C3.93791 110.505 3.93791 110.47 4.02723 110.47C4.11655 110.47 4.12342 110.47 4.12342 110.505C4.12342 111.034 4.25397 111.295 4.50132 111.295C4.58428 111.292 4.66596 111.274 4.74179 111.24L8.59628 109.488L5.31206 108.238C5.15495 108.173 4.98722 108.138 4.81737 108.134C4.35703 108.134 4.13029 108.499 4.13029 109.22C4.13029 109.254 4.13029 109.268 4.0341 109.268C3.93791 109.268 3.94478 109.268 3.94478 109.22C3.94478 108.959 3.94478 108.76 3.94478 108.636V107.75V107.193C3.93573 107.031 3.93573 106.868 3.94478 106.705C3.94478 106.705 3.95165 106.657 4.01349 106.657Z" fill="#010C08"/>
<path d="M9.92853 98.0068C9.99037 98.0068 10.0178 98.0068 10.0178 98.0549C10.0178 98.2885 10.0178 98.4809 10.0178 98.6252V99.436V100.247C10.0178 100.391 10.0178 100.583 10.0178 100.817C10.0178 100.851 10.0178 100.865 9.92853 100.865C9.83921 100.865 9.83234 100.865 9.83234 100.817C9.84727 100.694 9.83601 100.569 9.7993 100.451C9.7626 100.332 9.70127 100.223 9.61935 100.13C9.35015 99.9855 9.04365 99.9256 8.73989 99.9581H6.27329C5.79415 99.9146 5.31345 100.023 4.89914 100.267C4.75173 100.382 4.63551 100.533 4.5611 100.704C4.48669 100.876 4.45645 101.064 4.47315 101.25C4.47676 101.55 4.55216 101.844 4.69302 102.109C4.84537 102.41 5.05548 102.679 5.31138 102.899H8.70554C9.02044 102.934 9.33858 102.874 9.61935 102.727C9.69914 102.633 9.75913 102.523 9.79572 102.405C9.83231 102.287 9.84477 102.163 9.83234 102.04C9.83234 102.04 9.83234 101.992 9.92853 101.992C10.0247 101.992 10.0178 101.992 10.0178 102.04C10.0178 102.274 10.0178 102.466 10.0178 102.61V103.421V104.245C10.0178 104.383 10.0178 104.568 10.0178 104.802C10.0178 104.836 10.0178 104.85 9.92853 104.85C9.83921 104.85 9.83234 104.85 9.83234 104.802C9.84727 104.679 9.83601 104.554 9.7993 104.436C9.7626 104.317 9.70127 104.208 9.61935 104.115C9.35015 103.971 9.04365 103.911 8.73989 103.943H5.65492C5.40037 103.928 5.14534 103.965 4.90601 104.053C4.83466 104.086 4.77488 104.14 4.73445 104.207C4.69401 104.275 4.67479 104.353 4.67927 104.431C4.70275 104.701 4.77736 104.965 4.89914 105.207C4.89914 105.242 4.89914 105.262 4.82356 105.276C4.74798 105.29 4.73424 105.276 4.72737 105.276L3.79295 103.448C3.78795 103.419 3.78795 103.389 3.79295 103.359C3.79295 103.263 3.90975 103.167 4.15023 103.077C4.44585 102.973 4.75725 102.919 5.07091 102.919C4.69044 102.673 4.37177 102.342 4.13948 101.952C3.90718 101.562 3.76747 101.125 3.73111 100.673C3.71771 100.439 3.75635 100.204 3.84426 99.987C3.93218 99.7696 4.06717 99.5743 4.23955 99.4153C4.63814 99.0914 5.14182 98.9252 5.65492 98.9481H8.73989C9.04277 98.9783 9.34795 98.921 9.61935 98.7832C9.69914 98.6889 9.75913 98.5794 9.79572 98.4614C9.83231 98.3433 9.84477 98.2191 9.83234 98.0962C9.83234 98.0962 9.85982 98.0068 9.92853 98.0068Z" fill="#010C08"/>
</svg>
