<svg width="61" height="60" viewBox="0 0 61 60" fill="none" xmlns="http://www.w3.org/2000/svg">
<path d="M14.6165 27.4805V25.4453C14.6165 25.1191 14.4465 24.816 14.1681 24.6456C13.8896 24.4756 13.5426 24.4622 13.252 24.6108L6.68699 27.9636C6.37339 28.1236 6.1762 28.446 6.17578 28.7981V31.499L8.05149 30.608V29.375L12.7408 26.9789V28.3857L14.6165 27.4805Z" fill="#F8B242"/>
<path d="M27.7473 21.2337V19.358C27.7473 19.0314 27.5774 18.7287 27.2989 18.5583C27.0205 18.3879 26.6734 18.3745 26.3828 18.5232L19.8179 21.876C19.5043 22.0363 19.3071 22.3587 19.3066 22.7108V25.2665L21.1824 24.3755V23.2639L25.8716 20.8679V22.1248L27.7473 21.2337Z" fill="#F8B242"/>
<path d="M39.4133 33.4913C39.1365 33.3196 38.7903 33.3037 38.4989 33.4494L31.9339 36.7319C31.6157 36.8923 31.4156 37.2193 31.4181 37.576V47.0483L30.2035 45.8337C29.8371 45.4674 29.243 45.4674 28.8766 45.8337C28.5099 46.2001 28.5099 46.7942 28.8766 47.1605L31.6902 49.9741C31.9804 50.2546 32.4149 50.3241 32.7779 50.1479L35.0195 49.0036V50.8793L33.5098 51.6484H33.5093C33.2874 51.7614 33.1195 51.9582 33.0425 52.1952C32.9655 52.4322 32.986 52.6901 33.099 52.912C33.3347 53.3742 33.9004 53.558 34.363 53.3223L38.9728 50.9777H38.9724C39.4346 50.7419 39.6184 50.1763 39.3827 49.7141C39.147 49.2519 38.5813 49.0681 38.1191 49.3038L36.8953 49.9322V48.0565L39.3429 46.8046V46.8042C39.6628 46.643 39.8629 46.3139 39.8587 45.9555V34.2886C39.8583 33.9637 39.69 33.6622 39.4132 33.4914L39.4133 33.4913ZM37.983 45.3886L33.2937 47.7847V38.1575L37.983 35.8129V45.3886Z" fill="#F8B242"/>
<path d="M20.6328 35.1697V37.2565L27.0337 34.1616C26.8315 33.7634 26.7272 33.3229 26.7289 32.8766V32.2109L20.6328 35.1697Z" fill="#F8B242"/>
<path d="M15.476 41.8054C15.7247 41.8054 15.9634 41.7066 16.1392 41.5308C16.3151 41.3549 16.4139 41.1163 16.4139 40.8676V39.7187L18.21 38.9215C18.5521 38.7657 18.7677 38.4203 18.7585 38.0448V33.8244C18.7585 33.505 18.5965 33.2077 18.3281 33.0352C18.0597 32.8627 17.7219 32.8384 17.4313 32.9707L12.2731 35.3154C11.939 35.4678 11.7246 35.8014 11.7246 36.169V40.3894C11.725 40.708 11.8875 41.0049 12.1559 41.1769C12.4255 41.3448 12.7604 41.3695 13.0518 41.2427L14.5382 40.5719V40.8629C14.5369 41.1125 14.6353 41.352 14.8111 41.5291C14.9874 41.7057 15.2265 41.8054 15.476 41.8054V41.8054ZM13.6003 38.9215V36.7737L16.8828 35.2777V37.4394L13.6003 38.9215Z" fill="#F8B242"/>
<path d="M32.3569 34.2889C32.6056 34.2889 32.8442 34.19 33.0201 34.0142C33.1959 33.8383 33.2947 33.5997 33.2947 33.351V32.2021L35.0909 31.3861V31.3865C35.425 31.2337 35.6394 30.9004 35.6394 30.5328V26.3125C35.6394 25.9934 35.4774 25.6961 35.209 25.5236C34.9406 25.3511 34.6027 25.3265 34.3122 25.4592L29.1539 27.8038C28.8215 27.9554 28.6071 28.287 28.6055 28.6525V32.8728C28.6059 33.1919 28.7683 33.4883 29.0367 33.6608C29.3047 33.8333 29.6421 33.858 29.9327 33.7261L31.419 33.0558V33.3464C31.4178 33.5959 31.5162 33.8358 31.692 34.0125C31.8683 34.1896 32.1073 34.2888 32.3569 34.2888V34.2889ZM30.4812 31.4192V29.2576L33.7637 27.7616V29.9233L30.4812 31.4192Z" fill="#F8B242"/>
<path d="M24.4371 40.0241L17.8721 43.3066C17.5564 43.4707 17.3567 43.7948 17.3517 44.1506V53.623L16.1371 52.4084C15.7707 52.042 15.1766 52.042 14.8102 52.4084C14.4435 52.7747 14.4435 53.3693 14.8102 53.7356L17.6238 56.5492C17.9139 56.8297 18.3485 56.8988 18.7115 56.7225L20.9531 55.5782V57.454L19.4433 58.2231H19.4429C19.221 58.3365 19.0531 58.5329 18.9761 58.7699C18.8991 59.0069 18.9196 59.2648 19.0326 59.4871C19.2683 59.9493 19.834 60.1327 20.2966 59.8974L24.9064 57.5528H24.906C25.3682 57.317 25.552 56.751 25.3163 56.2888C25.0805 55.8265 24.5149 55.6427 24.0527 55.8784L22.8289 56.5069V54.6312L25.2765 53.3793C25.5997 53.2164 25.8003 52.8827 25.7923 52.521V40.8637C25.7927 40.7565 25.7739 40.6498 25.7362 40.5493C25.6391 40.3031 25.4448 40.1071 25.1995 40.0079C24.9537 39.9087 24.6782 39.9145 24.437 40.0242L24.4371 40.0241ZM23.9167 51.9675L19.2274 54.3636V48.4602L23.9167 46.0406V51.9675ZM23.9167 43.9301L19.2274 46.3454V44.7322L23.9167 42.3876V43.9301Z" fill="#F8B242"/>
<path d="M44.5481 30.5845C44.5515 30.2328 44.3576 29.9087 44.0465 29.7454L39.3899 27.2835V19.2599C39.3908 18.9379 39.2258 18.6377 38.9537 18.4656C38.6815 18.2931 38.3399 18.2726 38.0489 18.4112L0.534665 36.2583C0.207252 36.4145 -0.000833521 36.7448 2.50985e-06 37.1074V56.8345C0.00377065 57.1657 0.182129 57.4709 0.46893 57.6363C0.755314 57.808 1.10911 57.8201 1.40679 57.6694L13.1305 51.6344V51.634C13.6137 50.7933 14.5055 50.2708 15.4752 50.2604V48.3001L1.87571 55.334V47.5263L5.53796 50.0912C5.81554 50.2813 6.17311 50.3081 6.47581 50.1616L15.4746 45.6741V44.1501C15.4771 43.9432 15.5023 43.7372 15.5496 43.5359L6.17101 48.2251L2.80395 45.8805L10.4713 42.1572C10.0681 41.6577 9.84831 41.0355 9.84748 40.3941L1.8757 44.225V37.7024L37.5142 20.746V29.074L38.1707 28.755L41.5516 30.5415L39.5444 31.5451H39.5448C39.8442 31.61 40.1314 31.7239 40.3935 31.883C40.7556 32.1082 41.0617 32.4126 41.289 32.7739L44.0277 31.4186C44.3446 31.2612 44.546 30.9379 44.5481 30.5837L44.5481 30.5845Z" fill="#F8B242"/>
<path d="M29.5417 41.0231L27.666 41.9936V44.1038L29.5417 43.1379V41.0231Z" fill="#F8B242"/>
<path d="M29.5429 37.5761C29.5425 37.1801 29.6254 36.7886 29.7866 36.4272L26.0352 38.303C26.1402 38.3511 26.242 38.4055 26.34 38.4671C26.8173 38.7635 27.1945 39.1964 27.4235 39.7098L29.5428 38.6497L29.5429 37.5761Z" fill="#F8B242"/>
<path d="M59.6284 0.174105C59.3806 -0.00257617 59.0624 -0.0477969 58.7752 0.0522696L20.6329 13.3227L1.18655 8.01922C0.906451 7.94218 0.60667 7.99912 0.374725 8.17371C0.142351 8.34788 0.00419136 8.62003 4.81615e-07 8.91018V26.6919C-0.000418177 27.1077 0.27215 27.474 0.670733 27.5925L4.3049 28.6852V28.6848C4.32876 28.0375 4.57536 27.4179 5.00326 26.9314L1.87565 25.9936V10.1529L33.1111 18.6782L35.7136 17.4401L23.8259 14.1999L58.1471 2.26077V17.3511L48.3323 20.8915L41.2657 18.9547C41.2711 19.0564 41.2711 19.1582 41.2657 19.2595V20.9053L58.1471 25.5151V42.8884L41.7351 37.9835V39.9438L58.818 45.0739V45.0735C59.1061 45.1593 59.4176 45.102 59.6563 44.919C59.8945 44.7364 60.031 44.4501 60.023 44.1499V24.7979C60.0234 24.375 59.7413 24.0045 59.3339 23.8927L51.484 21.7499L59.4043 18.894C59.7769 18.7592 60.0248 18.4041 60.0231 18.0076V0.938654C60.0231 0.635111 59.8766 0.350399 59.6291 0.174136L59.6284 0.174105Z" fill="#F8B242"/>
</svg>
