<svg width="152" height="156" viewBox="0 0 152 156" fill="none" xmlns="http://www.w3.org/2000/svg">
<path opacity="0.09" d="M149.667 104.572C150.014 104.556 150.344 104.418 150.599 104.182C150.855 103.947 151.02 103.629 151.065 103.284C151.111 102.938 151.034 102.588 150.848 102.294C150.662 102 150.379 101.781 150.049 101.675C133.677 96.876 117.802 90.5112 102.641 82.6682C113.557 71.8729 126.362 63.1899 140.415 57.0543C142.275 56.2404 140.915 53.3918 139.055 53.8466C129.516 56.2404 120.097 58.4188 110.558 60.5014C108.913 60.8605 97.6567 64.3555 96.2497 63.5655C92.2672 61.3393 94.8427 60.2381 94.6042 56.7671C94.0081 47.9339 96.6551 37.9756 96.9889 29.0466C97.3228 20.1177 96.9889 10.4945 96.6789 1.23041C96.7059 0.942076 96.6211 0.654396 96.4422 0.427236C96.2632 0.200075 96.0039 0.0509297 95.7182 0.0108375C95.4325 -0.0292548 95.1424 0.0427939 94.9082 0.21199C94.6741 0.381186 94.5139 0.634498 94.4611 0.91921C88.4328 17.7627 83.369 34.9385 79.2944 52.3624C76.2181 65.1694 73.3803 55.3787 68.6347 48.3648C63.4837 40.7524 58.6189 32.9964 53.9687 25.0729C53.8002 24.7788 53.5301 24.5569 53.2097 24.449C52.8892 24.3411 52.5405 24.3547 52.2294 24.4873C51.9183 24.6199 51.6663 24.8623 51.521 25.1686C51.3758 25.475 51.3473 25.8241 51.4409 26.1501C53.5886 34.5784 56.3545 42.8357 59.7159 50.8543C61.2898 54.5887 64.223 58.8258 65.2246 62.7038C66.5839 68.0899 68.587 67.4914 61.2182 66.486C52.1086 65.1694 42.9275 61.5308 33.8894 59.5679C23.1821 57.174 12.427 55.7377 1.55274 53.5833C0.288845 53.3439 -0.688888 55.1872 0.622704 55.8574C19.4858 65.5764 39.8751 75.5825 60.4313 81.6389C43.7383 83.6976 27.0453 88.8204 10.9724 93.225C10.509 93.3535 10.108 93.6468 9.84428 94.0504C9.58059 94.4539 9.4722 94.9399 9.53937 95.4178C9.60655 95.8956 9.84467 96.3326 10.2093 96.6471C10.5739 96.9616 11.0401 97.1322 11.5208 97.1269C20.8928 97.4381 30.3124 97.4142 39.732 97.3424C44.5014 97.3424 61.5998 94.7331 64.1753 97.9887C66.7508 101.244 60.1213 118.743 59.0482 123.531C56.8304 133.322 54.7795 143.112 53.0864 152.999C52.8002 154.722 55.1372 156.015 56.115 154.267C65.3994 137.559 74.3183 120.658 82.8714 103.566C85.0483 118.062 88.939 132.246 94.4611 145.817C94.5786 146.217 94.8345 146.562 95.1828 146.789C95.531 147.016 95.9486 147.11 96.3602 147.055C96.7718 147 97.1503 146.8 97.4274 146.489C97.7045 146.179 97.8619 145.779 97.8713 145.362C99.6016 129.801 99.3372 114.081 97.0843 98.5872C114.456 101.779 132.025 103.778 149.667 104.572V104.572Z" fill="#F8B242"/>
</svg>
