<svg width="60" height="60" viewBox="0 0 60 60" fill="none" xmlns="http://www.w3.org/2000/svg">
<path fill-rule="evenodd" clip-rule="evenodd" d="M29.1586 35.1642H6.21848V42.3499H0V60H15.0958V42.3499H7.90073V37.1307H29.1574V42.3499H22.4521V60H37.5479V42.3499H30.8426V37.1307H52.0993V42.3499H44.9042V60H60V42.3499H53.7815V35.1642H30.8414V24.8358H53.7815V17.6501H60V0H44.9042V17.6501H52.0993V22.8693H30.8426V17.6501H37.5479V0H22.4521V17.6501H29.1574V22.8693H7.90073V17.6501H15.0958V0H0V17.6501H6.21848V24.8358H29.1586V35.1642V35.1642ZM46.5883 15.6807H58.3176V1.96673H46.5883V15.6807ZM1.6847 15.6807H13.414V1.96673H1.6847V15.6807ZM24.1358 15.6807H35.8651V1.96673H24.1358V15.6807ZM46.5883 44.3156H58.3176V58.0296H46.5883V44.3156ZM1.6847 44.3156H13.414V58.0296H1.6847V44.3156ZM24.1358 44.3156H35.8651V58.0296H24.1358V44.3156Z" fill="#F8B242"/>
</svg>
