<svg width="140" height="140" viewBox="0 0 140 140" fill="none" xmlns="http://www.w3.org/2000/svg">
<path fill-rule="evenodd" clip-rule="evenodd" d="M69.358 124.713C99.0661 124.713 123.149 100.563 123.149 70.7715C123.149 40.9805 99.0661 16.8301 69.358 16.8301C39.6499 16.8301 15.5667 40.9805 15.5667 70.7715C15.5667 100.563 39.6499 124.713 69.358 124.713ZM69.358 125.495C99.4966 125.495 123.929 100.994 123.929 70.7715C123.929 40.5487 99.4966 16.0483 69.358 16.0483C39.2193 16.0483 14.7871 40.5487 14.7871 70.7715C14.7871 100.994 39.2193 125.495 69.358 125.495Z" fill="white" fill-opacity="0.5"/>
<path d="M121.672 85.006C121.91 84.781 122.179 84.6222 122.479 84.5296C122.791 84.4524 123.082 84.4269 123.351 84.453L130.189 85.4638L130.249 85.4727L130.258 85.4123L130.267 85.352L131.307 78.2738L131.316 78.2135L131.256 78.2046L130.494 78.092L130.434 78.0831L130.408 78.1203L128.471 85.0249L126.426 84.7226L124.403 83.1498C123.952 82.7818 123.574 82.3355 123.268 81.811C122.963 81.2864 122.759 80.7221 122.657 80.118C122.582 79.6003 122.584 79.08 122.661 78.5572C122.714 78.1952 122.79 77.864 122.889 77.5636C123.347 76.3986 124.252 75.5393 125.603 74.9858C127.127 74.3755 129.059 74.2433 131.398 74.5891C133.738 74.9349 135.549 75.6204 136.833 76.6457C137.381 77.0965 137.813 77.5986 138.127 78.1519C138.455 78.7072 138.643 79.2897 138.69 79.8993C138.676 80.363 138.654 80.7021 138.622 80.9166C138.557 81.359 138.411 81.8441 138.183 82.372C137.905 82.961 137.535 83.4815 137.073 83.9336C136.623 84.3877 136.129 84.7324 135.589 84.9676L133.699 85.8388L133.501 85.9327L133.701 85.9624L135.446 86.2202L135.506 86.2291C136.278 85.7133 136.917 85.0818 137.423 84.3348C137.941 83.6031 138.339 82.7512 138.619 81.7789C138.702 81.4899 138.763 81.2114 138.803 80.9432C138.86 80.5545 138.877 80.1598 138.854 79.7592C138.858 78.801 138.69 77.8584 138.348 76.9313C138.004 76.0175 137.512 75.1846 136.871 74.4324C136.219 73.6649 135.458 73.032 134.589 72.5337C133.718 72.0488 132.801 71.7352 131.839 71.5929C130.876 71.4507 129.908 71.4856 128.934 71.6978C127.959 71.9234 127.042 72.3083 126.183 72.8526C125.367 73.3894 124.656 74.0444 124.05 74.8179C123.456 75.6067 123.023 76.4604 122.752 77.379C122.614 77.7559 122.517 78.1388 122.46 78.5275C122.436 78.6884 122.422 78.9739 122.416 79.3839C122.389 80.3113 122.51 81.2058 122.78 82.0675C123.061 82.9445 123.467 83.71 123.999 84.3639L123.378 84.272C123.084 84.2286 122.773 84.2511 122.446 84.3397C122.117 84.4417 121.818 84.6167 121.549 84.8646L121.5 84.919L121.554 84.9681L121.589 85.0143L121.623 85.0604L121.672 85.006Z" fill="white"/>
<path d="M125.845 98.2989C126.379 98.1151 126.879 97.7694 127.345 97.2618C127.811 96.7542 128.177 96.189 128.442 95.5659C128.612 95.1672 128.72 94.7935 128.766 94.4447C128.889 93.6723 128.848 92.8886 128.644 92.0935C128.433 91.3108 128.077 90.6128 127.574 89.9995C127.071 89.3862 126.46 88.9251 125.739 88.6162C124.912 88.247 124.025 88.1393 123.077 88.2933C122.142 88.4526 121.287 88.8227 120.51 89.4035C119.746 89.9897 119.192 90.7028 118.849 91.543C118.52 92.3155 118.339 93.152 118.308 94.0523C118.284 94.9704 118.448 95.7407 118.8 96.3631L120.571 97.1219L119.731 95.5241C119.429 95.1294 119.191 94.5336 119.016 93.7366C118.936 93.2012 118.887 92.7973 118.871 92.5251C118.867 92.2582 118.917 91.9699 119.019 91.6602C119.129 91.3683 119.254 91.1271 119.394 90.9366C119.528 90.7585 119.713 90.6018 119.947 90.4663C120.568 90.1134 121.244 89.9908 121.977 90.0986C122.71 90.2064 123.55 90.4413 124.498 90.8033C125.331 91.1601 126.036 91.5214 126.615 91.8874C127.194 92.2533 127.668 92.6923 128.038 93.2044C128.294 93.5351 128.44 93.8997 128.475 94.2982C128.511 94.6967 128.45 95.0829 128.29 95.4567C128.073 95.9675 127.741 96.3486 127.296 96.6C126.963 96.796 126.56 96.8961 126.088 96.9001C125.616 96.9042 125.169 96.8156 124.746 96.6346C124.523 96.5387 124.341 96.4313 124.2 96.3122C123.97 96.0954 123.807 95.8046 123.713 95.44C123.631 95.0806 123.598 94.691 123.616 94.2711C123.619 94.022 123.642 93.6563 123.686 93.1741C123.755 92.5993 123.787 92.1269 123.783 91.7568C123.774 91.3992 123.69 91.0977 123.53 90.8523L123.397 90.9058C123.518 91.2082 123.576 91.5355 123.573 91.8878C123.577 92.2579 123.545 92.7303 123.476 93.3051C123.476 93.3051 123.459 93.5186 123.424 93.9457L123.031 98.1763C123.48 98.3982 123.951 98.5188 124.442 98.5378C124.934 98.5569 125.401 98.4772 125.845 98.2989Z" fill="white"/>
<path d="M114.664 104.557C114.326 104.332 114.046 104.033 113.824 103.657C113.602 103.282 113.477 102.882 113.449 102.458C113.414 102.045 113.501 101.68 113.71 101.363C113.867 101.126 114.027 100.932 114.192 100.781C114.476 100.547 114.808 100.475 115.186 100.564C115.569 100.672 116.087 100.943 116.74 101.377C116.954 101.519 117.426 101.848 118.154 102.365L118.802 102.819C119.598 103.381 120.261 103.837 120.791 104.189L123.342 105.884L121.361 108.883L122.08 108.531L122.275 107.832L123.495 105.985L127.466 108.622L126.471 105.012L126.409 104.995C126.113 104.977 125.548 104.691 124.715 104.138L125.923 102.307L125.771 102.206L124.562 104.037C124.409 103.951 124.174 103.803 123.858 103.593L122.011 102.342L118.563 100.052C118.011 99.6855 117.48 99.4466 116.97 99.3354C116.434 99.2393 115.955 99.2783 115.532 99.4525C115.187 99.5813 114.86 99.7946 114.55 100.092C114.262 100.356 113.984 100.667 113.715 101.025L113.614 101.178C113.502 101.347 113.415 101.517 113.351 101.686C113.281 101.866 113.246 102.103 113.247 102.396C113.279 103.035 113.509 103.619 113.938 104.148C114.167 104.414 114.372 104.607 114.552 104.726L114.603 104.76L114.715 104.591L114.664 104.557Z" fill="white"/>
<path d="M105.035 111.121C105.111 111.124 105.313 111.241 105.64 111.472C105.976 111.713 106.576 112.236 107.439 113.041C108.311 113.855 109.467 115.034 110.908 116.577L116.409 122.466L116.451 122.511L116.495 122.469L118.847 120.26L118.98 120.135L118.809 120.129C118.732 120.127 118.526 120.005 118.19 119.764C117.862 119.533 117.263 119.01 116.391 118.195C115.528 117.39 114.376 116.216 112.935 114.673C110.727 112.31 109.249 110.588 108.5 109.509C108.244 109.156 108.071 108.891 107.981 108.716C107.901 108.55 107.87 108.458 107.89 108.439L107.881 108.281L107.762 108.392L104.981 111.004L104.848 111.129L105.035 111.121Z" fill="white"/>
<path d="M98.6263 122.854C99.1983 123.629 99.9328 124.207 100.83 124.589C101.723 124.989 102.62 125.087 103.521 124.883C104.08 124.725 104.535 124.531 104.885 124.3C105.709 123.757 106.167 122.912 106.257 121.767L107.425 123.55L108.562 120.807L108.574 120.751C108.436 120.663 108.307 120.553 108.188 120.421C108.077 120.3 107.857 120.015 107.531 119.565C107.211 119.127 106.736 118.427 106.105 117.464C105.3 116.211 104.709 115.247 104.331 114.572C103.953 113.896 103.73 113.444 103.66 113.214C103.59 112.985 103.56 112.778 103.569 112.594L101.248 114.123L106.067 121.478C106.078 122.185 105.948 122.74 105.68 123.144C105.407 123.567 105.18 123.838 105 123.957C104.608 124.247 104.141 124.312 103.599 124.151C103.064 124 102.543 123.736 102.035 123.356C101.446 122.902 100.92 122.357 100.455 121.722L99.6427 120.482L97.2163 116.779L95.4207 117.962L97.7358 121.496L98.6263 122.854Z" fill="white"/>
<path d="M81.5621 139.95L81.6211 139.935L82.23 139.779L83.7817 139.383L85.9815 138.821L88.6725 138.133L91.0098 137.536L92.5419 137.145L93.1508 136.989L93.2294 136.969L93.2144 136.91L92.8557 134.757L92.8353 134.595L92.7475 134.743L90.9844 137.354L88.6274 137.956C88.4626 137.747 88.1909 137.089 87.8124 135.983C87.4338 134.877 86.9093 133.004 86.2388 130.365C85.4715 127.345 84.9962 125.117 84.8128 123.682C84.7348 123.1 84.7021 122.752 84.7147 122.637C84.7273 122.522 84.7336 122.465 84.7336 122.465L84.8068 122.341L84.6693 122.376L81.4874 123.189L81.3302 123.229L81.4535 123.303C81.5785 123.41 81.8367 123.988 82.2281 125.034C82.6064 126.084 83.1642 128.06 83.9014 130.962L85.8579 138.664L83.6973 139.216L80.9231 137.764L80.7753 137.676L80.8153 137.833L81.5471 139.891L81.5621 139.95Z" fill="white"/>
<path d="M71.3979 134.77C71.0737 134.778 70.8027 134.75 70.585 134.688C70.3541 134.639 70.1491 134.542 69.97 134.397C69.5287 134.014 69.204 133.419 68.9961 132.61C68.775 131.816 68.6521 130.883 68.6274 129.813C68.603 128.756 68.6827 127.819 68.8666 127.002C69.0373 126.198 69.3342 125.595 69.7574 125.192C69.9293 125.025 70.1294 124.912 70.3578 124.853C70.5727 124.793 70.8423 124.76 71.1665 124.752C71.5042 124.745 71.7885 124.765 72.0194 124.814C72.2368 124.863 72.4352 124.967 72.6146 125.125C73.056 125.508 73.3872 126.097 73.6083 126.892C73.8162 127.7 73.9324 128.633 73.9568 129.689C73.9815 130.759 73.9085 131.696 73.7379 132.5C73.554 133.317 73.2505 133.928 72.8272 134.331C72.6551 134.484 72.4548 134.59 72.2264 134.65C71.9983 134.723 71.7221 134.763 71.3979 134.77ZM76.4492 129.631C76.4292 128.764 76.1801 127.93 75.702 127.128C75.2108 126.339 74.5608 125.704 73.7522 125.221C72.9436 124.738 72.08 124.508 71.1613 124.529C70.2427 124.55 69.3974 124.821 68.6255 125.34C67.84 125.86 67.2268 126.525 66.786 127.335C66.332 128.158 66.1149 129.004 66.135 129.871C66.155 130.738 66.4108 131.572 66.9024 132.374C67.3805 133.176 68.0238 133.819 68.8325 134.301C69.6276 134.784 70.4844 135.015 71.4031 134.994C72.3217 134.973 73.1737 134.702 73.9592 134.182C74.7446 133.663 75.3644 132.991 75.8184 132.167C76.259 131.344 76.4692 130.498 76.4492 129.631Z" fill="white"/>
<path d="M54.0719 128.894C53.7388 129.463 53.5024 130.099 53.3628 130.804C53.2707 131.269 53.2526 131.638 53.3086 131.912C53.4856 131.505 53.7401 130.499 54.0719 128.894ZM53.1777 132.155C53.0581 131.855 53.0602 131.393 53.1839 130.768C53.2708 130.33 53.4067 129.887 53.5917 129.44C53.7633 128.991 53.9616 128.616 54.1865 128.315L54.2141 128.176C54.4879 126.725 54.6733 125.615 54.7704 124.847C54.8542 124.076 54.892 123.572 54.8837 123.336C54.8622 123.097 54.8209 122.888 54.7597 122.71L54.879 122.734L57.4635 123.249L57.1159 125.003C57.5207 124.49 58.0039 124.137 58.5655 123.945C59.1138 123.75 59.6861 123.712 60.2826 123.831C60.8392 123.942 61.3656 124.171 61.8616 124.519C62.3417 124.877 62.7292 125.32 63.024 125.849C63.5126 126.65 63.7404 127.552 63.7072 128.554C63.734 128.767 63.5578 129.83 63.1786 131.744C62.9627 132.834 62.802 133.61 62.6966 134.073C62.6387 134.365 62.5808 134.657 62.5228 134.95C62.449 135.253 62.399 135.505 62.3727 135.707L60.2281 134.12C60.355 133.827 60.5265 133.309 60.7429 132.564C60.946 131.817 61.1266 131.045 61.2845 130.248C61.6953 128.174 61.7477 126.693 61.4418 125.803C61.1303 124.663 60.6181 124.05 59.9051 123.963C59.7858 123.939 59.5791 123.94 59.285 123.964C58.9909 123.988 58.6359 124.111 58.2201 124.332C57.7911 124.55 57.3954 124.914 57.033 125.422L55.2714 134.313L53.1777 132.155Z" fill="white"/>
<path d="M47.6941 128.528C47.2535 129.092 46.808 129.493 46.3575 129.73C45.7781 130.03 45.2401 130.091 44.7435 129.911C44.3539 129.792 44.03 129.568 43.7717 129.239C43.4023 128.79 43.1216 128.217 42.9294 127.519C42.8105 127.102 42.68 126.467 42.538 125.614L42.501 125.335L41.8714 127.053C41.8506 127.103 41.8412 127.144 41.8432 127.174C41.8296 127.241 41.8399 127.305 41.8741 127.363C42.2292 128.232 42.8138 128.955 43.6277 129.531C43.9205 129.742 44.204 129.905 44.4783 130.02C44.8647 130.183 45.3136 130.283 45.8249 130.321C46.9951 130.431 48.0906 130.193 49.1112 129.607C50.1142 129.03 50.8322 128.222 51.2652 127.184C51.6774 126.197 51.743 125.145 51.4621 124.028C51.1812 122.911 50.6152 121.968 49.7641 121.2C49.6582 121.067 49.5 120.92 49.2892 120.758C49.0608 120.604 48.8032 120.466 48.5165 120.346C48.2423 120.231 48.0101 120.155 47.82 120.119C47.2422 119.994 46.6732 119.954 46.1129 119.998C45.5473 120.054 45.0331 120.198 44.5701 120.43L44.5623 120.449L43.6936 122.53L45.1954 121.354C45.6045 121.04 46.0752 120.79 46.6077 120.602C47.1402 120.414 47.6231 120.345 48.0565 120.395C48.2415 120.443 48.3713 120.483 48.4461 120.514C48.5708 120.567 48.6616 120.612 48.7187 120.651C49.3718 121.087 49.721 121.777 49.7663 122.721C49.8115 123.666 49.5446 124.832 48.9655 126.219C48.595 127.107 48.1712 127.876 47.6941 128.528Z" fill="white"/>
<path d="M32.2726 116.701C32.1486 116.878 32.0612 117.015 32.0103 117.112C31.5388 117.906 31.2853 118.753 31.25 119.655C31.1959 120.56 31.3592 121.377 31.7401 122.108C32.0712 122.72 32.508 123.217 33.0504 123.598C33.3161 123.784 33.5885 123.926 33.8675 124.022C34.6302 124.276 35.4162 124.249 36.2254 123.94C36.4977 123.834 36.7003 123.744 36.8331 123.672L37.1071 123.492L31.9935 130.82L35.7876 129.885L35.8275 129.863L35.8341 129.818C35.7876 129.885 35.8485 129.762 36.0167 129.45C36.1662 129.142 36.4489 128.654 36.8651 127.987C37.2813 127.319 37.8806 126.425 38.6632 125.304C40.5072 122.662 41.785 120.937 42.4967 120.13C43.2007 119.334 43.7049 118.836 44.0093 118.636L41.6512 116.981L37.4673 122.976C36.5508 123.722 35.6342 124.055 34.7176 123.974C34.1896 123.951 33.754 123.819 33.4108 123.578C33.2558 123.469 33.1439 123.357 33.0753 123.243C32.8505 122.903 32.7249 122.493 32.6982 122.011C32.6549 120.939 32.9974 119.798 33.7257 118.589C33.7999 118.459 33.9299 118.261 34.1159 117.994L37.0678 113.765L34.8592 112.215C34.8747 112.358 34.6827 112.81 34.2831 113.572C33.8648 114.337 33.1946 115.38 32.2726 116.701Z" fill="white"/>
<path d="M18.8454 90.4905C18.7872 90.8133 18.6646 91.1013 18.4776 91.3547C18.2724 91.6025 18.0537 91.796 17.8215 91.9353L11.7208 95.1931L11.6671 95.2218L11.6957 95.2756L11.7242 95.3294L15.0777 101.645L15.1063 101.698L15.16 101.67L15.8398 101.307L15.8935 101.278L15.8924 101.233L13.363 94.5234L15.1878 93.549L17.7465 93.6104C18.3275 93.6379 18.8962 93.7717 19.4524 94.012C20.0087 94.2523 20.5068 94.585 20.9469 95.0101C21.3131 95.3826 21.6201 95.8021 21.8678 96.2685C22.0393 96.5915 22.1742 96.9032 22.2726 97.2038C22.5937 98.414 22.3743 99.6441 21.6144 100.894C20.7495 102.293 19.2734 103.549 17.1862 104.664C15.099 105.778 13.2354 106.305 11.5957 106.244C10.8875 106.208 10.2429 106.061 9.66203 105.803C9.06922 105.552 8.57345 105.195 8.17472 104.732C7.91106 104.351 7.72842 104.065 7.6268 103.873C7.41721 103.478 7.24781 103.001 7.1186 102.44C6.99342 101.801 6.9831 101.162 7.08764 100.523C7.18024 99.8898 7.37416 99.318 7.66938 98.8073L8.67447 96.981L8.77832 96.7874L8.59942 96.8829L7.04293 97.7141L6.98926 97.7428C6.67313 98.6178 6.53267 99.5064 6.56786 100.409C6.58478 101.305 6.7686 102.228 7.11933 103.177C7.22327 103.459 7.33876 103.72 7.46579 103.959C7.64998 104.306 7.86995 104.634 8.1257 104.942C8.68956 105.716 9.38346 106.374 10.2074 106.917C11.025 107.447 11.9142 107.824 12.8751 108.048C13.8542 108.277 14.841 108.334 15.8354 108.217C16.8235 108.089 17.747 107.795 18.6057 107.337C19.4645 106.878 20.2228 106.274 20.8806 105.523C21.5321 104.761 22.0421 103.905 22.4108 102.956C22.75 102.038 22.9342 101.088 22.9634 100.105C22.9744 99.1164 22.8172 98.1718 22.4919 97.2709C22.3793 96.8858 22.2309 96.5198 22.0467 96.173C21.9705 96.0295 21.8132 95.791 21.575 95.4577C21.0477 94.6953 20.4205 94.0477 19.6936 93.5148C18.9483 92.9763 18.168 92.6023 17.3526 92.393L17.9072 92.0968C18.1696 91.9567 18.4062 91.7536 18.617 91.4875C18.8215 91.2094 18.9584 90.8907 19.0278 90.5313L19.035 90.4583L18.9623 90.4511L18.9074 90.4343L18.8526 90.4176L18.8454 90.4905Z" fill="white"/>
<path d="M7.61369 82.2604C7.29228 82.7257 7.09383 83.3013 7.01833 83.9872C6.94283 84.673 6.98224 85.3457 7.13656 86.0053C7.23532 86.4275 7.36932 86.7926 7.53857 87.1008C7.89559 87.7962 8.39154 88.4033 9.02645 88.922C9.65826 89.4276 10.3579 89.7779 11.1253 89.9732C11.8927 90.1684 12.6579 90.1763 13.421 89.9968C14.3055 89.8026 15.0838 89.3621 15.7558 88.6751C16.4147 87.9911 16.8853 87.1845 17.1675 86.2552C17.4366 85.3289 17.4612 84.4254 17.2413 83.5446C17.0499 82.7267 16.7007 81.9459 16.1936 81.2023C15.6703 80.4485 15.083 79.9256 14.4317 79.6334L12.557 80.0744L14.1779 80.8623C14.6544 81.0007 15.1985 81.3389 15.8102 81.877C16.1914 82.2606 16.469 82.5572 16.6429 82.7668C16.8037 82.9795 16.9343 83.241 17.0347 83.5515C17.1188 83.8518 17.1608 84.1203 17.1607 84.3569C17.1574 84.5804 17.1016 84.8162 16.9931 85.0644C16.7017 85.7176 16.229 86.2185 15.575 86.5672C14.9209 86.9159 14.1052 87.2261 13.1278 87.4978C12.2464 87.7052 11.4644 87.8335 10.782 87.8827C10.0995 87.9319 9.45811 87.8601 8.85782 87.6673C8.45632 87.553 8.12336 87.346 7.85894 87.0463C7.59451 86.7466 7.41601 86.3989 7.32342 86.0031C7.19688 85.4623 7.2386 84.9583 7.44859 84.4914C7.60125 84.1353 7.86646 83.8155 8.24423 83.5317C8.622 83.248 9.03453 83.0535 9.48182 82.9483C9.71862 82.8926 9.92871 82.871 10.1121 82.8835C10.4262 82.921 10.729 83.0585 11.0206 83.2961C11.299 83.5368 11.5553 83.8315 11.7895 84.18C11.934 84.3826 12.1311 84.6911 12.3808 85.1056C12.6652 85.6094 12.9183 86.0091 13.1402 86.3049C13.359 86.5875 13.6053 86.7801 13.8791 86.8827L13.9546 86.7605C13.6785 86.5888 13.4377 86.3602 13.232 86.0745C13.0102 85.7788 12.757 85.379 12.4726 84.8753C12.4726 84.8753 12.3605 84.6928 12.1364 84.328L9.95219 80.6872C9.45926 80.7754 9.00921 80.9578 8.60204 81.2345C8.19487 81.5113 7.86542 81.8532 7.61369 82.2604Z" fill="white"/>
<path d="M12.9032 70.7852C13.308 70.7632 13.7112 70.8363 14.1127 71.0046C14.5142 71.1728 14.8523 71.4191 15.1269 71.7434C15.4007 72.0543 15.5479 72.3991 15.5683 72.778C15.5836 73.0621 15.5702 73.3139 15.5279 73.5333C15.4389 73.891 15.2159 74.1473 14.8589 74.3024C14.4876 74.4446 13.9107 74.537 13.1281 74.5794C12.8718 74.5933 12.2976 74.6109 11.4056 74.6321L10.6151 74.6546C9.64216 74.6802 8.8386 74.7103 8.20442 74.7446L5.14824 74.9104L4.95453 71.318L4.58694 72.03L4.84679 72.708L4.96608 74.9202L0.209775 75.1781L3.15551 77.4814L3.21513 77.4578C3.46347 77.2951 4.08689 77.1867 5.08538 77.1325L5.20357 79.3245L5.38573 79.3146L5.26753 77.1226C5.44221 77.0996 5.71846 77.0778 6.09626 77.0573L8.32371 76.9569L12.4526 76.733C13.1138 76.6972 13.6821 76.5714 14.1576 76.3556C14.6452 76.112 15.007 75.7939 15.2429 75.4011C15.4427 75.0917 15.5786 74.7247 15.6504 74.3002C15.7244 73.9162 15.7629 73.5002 15.7658 73.0522L15.756 72.8696C15.745 72.6666 15.7146 72.4783 15.6646 72.3046C15.6139 72.1173 15.501 71.9063 15.326 71.6716C14.9204 71.1779 14.3884 70.8471 13.7298 70.6793C13.3873 70.6029 13.1082 70.5705 12.8923 70.5822L12.8316 70.5855L12.8425 70.7885L12.9032 70.7852Z" fill="white"/>
<path d="M16.758 59.5089C16.6949 59.5522 16.4633 59.5778 16.0633 59.5855C15.6499 59.5908 14.8579 59.5252 13.6874 59.3887C12.5036 59.2497 10.8756 58.9861 8.80348 58.598L0.89341 57.1164L0.833637 57.1052L0.822473 57.1652L0.230759 60.342L0.197266 60.5219L0.339142 60.4244C0.402198 60.381 0.640415 60.3567 1.05379 60.3514C1.45389 60.3437 2.24583 60.4093 3.42963 60.5483C4.60014 60.6848 6.22148 60.9472 8.29364 61.3353C11.4683 61.9299 13.6758 62.4398 14.9163 62.8652C15.3314 62.9981 15.627 63.1086 15.803 63.1967C15.9658 63.2823 16.0447 63.3384 16.0397 63.3651L16.1407 63.4874L16.1704 63.3275L16.8701 59.5712L16.9036 59.3914L16.758 59.5089Z" fill="white"/>
<path d="M14.914 46.4252C13.9957 46.1414 13.0625 46.1122 12.1143 46.3377C11.1582 46.5457 10.3778 46.9996 9.77292 47.6996C9.41554 48.1593 9.164 48.586 9.01831 48.9798C8.67524 49.9073 8.80593 50.8592 9.41039 51.8356L7.41499 51.0933L8.12032 53.9789L8.14423 54.0311C8.30709 54.0194 8.47557 54.0315 8.64967 54.0674C8.8111 54.0985 9.15623 54.198 9.68507 54.3658C10.2012 54.5289 10.9978 54.8107 12.0746 55.2113C13.4636 55.7424 14.5097 56.1677 15.213 56.4872C15.9164 56.8066 16.364 57.0381 16.5559 57.1818C16.7478 57.3254 16.8946 57.474 16.9963 57.6274L17.9621 55.0167L9.73346 51.9557C9.3076 51.3927 9.08353 50.8685 9.06125 50.3833C9.031 49.8806 9.05347 49.5277 9.12866 49.3244C9.27251 48.8576 9.61059 48.5281 10.1429 48.3359C10.6625 48.1389 11.2387 48.0425 11.8713 48.0466C12.6147 48.063 13.3608 48.1888 14.1098 48.424L15.497 48.9401L19.6399 50.4811L20.3871 48.4611L16.4343 46.9907L14.914 46.4252Z" fill="white"/>
<path d="M18.6358 22.3325L18.5973 22.3797L18.1986 22.8667L17.1828 24.108L15.7426 25.8677L13.981 28.0202L12.4508 29.8899L11.4478 31.1155L11.0492 31.6025L10.9977 31.6654L11.0447 31.7041L12.6055 33.2252L12.718 33.3441L12.7011 33.1724L12.5789 30.0217L14.122 28.1363C14.3786 28.2072 14.986 28.5757 15.9443 29.2416C16.9027 29.9076 18.4316 31.1045 20.5311 32.8324C22.9336 34.8096 24.6327 36.3219 25.6285 37.3693C26.0348 37.7913 26.2668 38.0524 26.3247 38.1526C26.3825 38.2528 26.4114 38.3029 26.4114 38.3029L26.4255 38.4459L26.5155 38.336L28.5986 35.7906L28.7015 35.6649L28.5589 35.679C28.3944 35.6664 27.8453 35.3547 26.9116 34.7441C25.9865 34.123 24.3698 32.8625 22.0613 30.9627L15.9351 25.9209L17.3495 24.1926L20.4421 23.7139L20.6133 23.697L20.4879 23.5938L18.6828 22.3712L18.6358 22.3325Z" fill="white"/>
<path d="M29.7198 20.5653C29.9763 20.3664 30.2108 20.2274 30.4232 20.1484C30.638 20.0504 30.8603 20.0065 31.0902 20.0167C31.672 20.0624 32.2857 20.3488 32.9312 20.8761C33.5792 21.3843 34.2296 22.0618 34.8825 22.9088C35.5271 23.745 36.0172 24.5469 36.3527 25.3144C36.6906 26.063 36.8084 26.7253 36.7059 27.3014C36.6661 27.5378 36.5719 27.7479 36.4232 27.9316C36.2852 28.1071 36.0879 28.2943 35.8313 28.4932C35.564 28.7004 35.323 28.853 35.1082 28.951C34.9041 29.0407 34.683 29.0751 34.4448 29.0542C33.863 29.0085 33.2482 28.7316 32.6002 28.2233C31.9547 27.6961 31.3096 27.0144 30.6649 26.1782C30.0121 25.3313 29.5166 24.5335 29.1787 23.785C28.8432 23.0174 28.7267 22.3456 28.8291 21.7695C28.8772 21.5438 28.9756 21.3391 29.1242 21.1554C29.2647 20.9609 29.4632 20.7642 29.7198 20.5653ZM28.6925 27.7073C29.2214 28.3934 29.9156 28.9172 30.7749 29.2786C31.6367 29.6211 32.5359 29.7462 33.4724 29.6539C34.4089 29.5616 35.2407 29.2336 35.9677 28.6701C36.6947 28.1065 37.2153 27.3861 37.5296 26.5088C37.8545 25.6231 37.955 24.7232 37.8309 23.8089C37.7092 22.8756 37.3839 22.0658 36.8549 21.3797C36.326 20.6936 35.6265 20.174 34.7565 19.8208C33.8971 19.4593 32.9992 19.3247 32.0626 19.417C31.1368 19.501 30.3104 19.8248 29.5834 20.3884C28.8564 20.9519 28.3304 21.6765 28.0055 22.5621C27.6805 23.4478 27.5788 24.3572 27.7005 25.2905C27.8329 26.2156 28.1636 27.0211 28.6925 27.7073Z" fill="white"/>
<path d="M46.7804 15.0977C46.7081 14.4417 46.5179 13.7896 46.2097 13.1413C46.0062 12.7132 45.8004 12.4063 45.5923 12.2205C45.693 12.6527 46.089 13.6118 46.7804 15.0977ZM45.5521 11.947C45.827 12.1158 46.1011 12.4877 46.3744 13.0626C46.5662 13.4662 46.7212 13.9025 46.8394 14.3715C46.9697 14.8346 47.0344 15.254 47.0334 15.6297L47.0944 15.7582C47.7404 17.0856 48.2536 18.0863 48.6338 18.7602C49.0262 19.4282 49.2963 19.8545 49.4439 20.0392C49.6037 20.2179 49.7612 20.3603 49.9164 20.4663L49.8066 20.5188L47.4281 21.6558L46.6605 20.0412C46.6422 20.6955 46.4653 21.2679 46.1297 21.7586C45.8063 22.2434 45.3701 22.6171 44.8212 22.8795C44.3089 23.1244 43.7504 23.2563 43.1456 23.2752C42.5472 23.276 41.9723 23.153 41.4209 22.9062C40.551 22.5565 39.8307 21.9701 39.2598 21.1472C39.1116 20.9929 38.6189 20.035 37.7815 18.2736C37.3047 17.2706 36.9707 16.5522 36.7793 16.1182C36.6514 15.8491 36.5235 15.58 36.3956 15.3109C36.274 15.0238 36.1635 14.7914 36.0641 14.6137L38.7299 14.6004C38.8026 14.9108 38.9742 15.4293 39.2447 16.1556C39.5273 16.8762 39.8431 17.6034 40.192 18.3373C41.0991 20.2454 41.9405 21.4644 42.7163 21.9942C43.6456 22.7209 44.4218 22.9053 45.0451 22.5473C45.1548 22.4948 45.3204 22.3707 45.5416 22.1748C45.7629 21.979 45.9742 21.6678 46.1756 21.2412C46.3892 20.8089 46.4898 20.2804 46.4774 19.6559L42.5873 11.4729L45.5521 11.947Z" fill="white"/>
<path d="M52.2735 11.485C52.2921 10.7686 52.4119 10.1807 52.6329 9.72128C52.9199 9.13389 53.3159 8.76376 53.8211 8.61088C54.205 8.47405 54.5983 8.4605 55.0011 8.57022C55.5644 8.71002 56.1304 9.00265 56.6993 9.44811C57.0426 9.7121 57.5247 10.1441 58.1455 10.7442L58.3415 10.947L57.8259 9.19037C57.8129 9.13774 57.7967 9.09989 57.7771 9.07683C57.7478 9.01429 57.702 8.96978 57.6398 8.94329C56.8384 8.45767 55.9395 8.22643 54.9431 8.2496C54.5826 8.25504 54.258 8.29346 53.9694 8.36486C53.5627 8.46547 53.1426 8.65312 52.7091 8.92783C51.7044 9.53925 50.966 10.3848 50.4939 11.4646C50.0318 12.528 49.935 13.6057 50.2036 14.6976C50.4593 15.737 51.0317 16.6212 51.9209 17.3503C52.81 18.0794 53.8247 18.4983 54.9649 18.6071C55.1286 18.6503 55.3432 18.674 55.6087 18.6781C55.884 18.6658 56.1725 18.6223 56.4743 18.5477C56.7629 18.4763 56.9942 18.3982 57.1682 18.3133C57.7064 18.0685 58.1875 17.761 58.6114 17.391C59.0321 17.0078 59.3596 16.5849 59.5937 16.1222L59.5888 16.1025L59.05 13.912L58.5428 15.7541C58.4003 16.2499 58.1711 16.7323 57.855 17.2013C57.5389 17.6703 57.1921 18.0143 56.8145 18.2333C56.6373 18.305 56.5093 18.3506 56.4306 18.3701C56.2994 18.4026 56.1994 18.4203 56.1306 18.4234C55.3471 18.4636 54.6567 18.118 54.0592 17.3866C53.4618 16.6551 52.9834 15.5592 52.6242 14.0989C52.3944 13.1648 52.2775 12.2935 52.2735 11.485Z" fill="white"/>
<path d="M71.7844 11.7358C71.7786 11.5191 71.7675 11.3567 71.751 11.2487C71.6587 10.3295 71.3591 9.49714 70.8524 8.75177C70.3588 7.99248 69.7422 7.43309 69.0026 7.07358C68.3728 6.77887 67.727 6.64048 67.0651 6.65842C66.7409 6.66721 66.4381 6.71608 66.1566 6.80504C65.3929 7.05618 64.7775 7.5473 64.3106 8.27839C64.1551 8.5266 64.0453 8.71935 63.9815 8.85664L63.8681 9.16471L63.6272 0.224641L61.1333 3.24053L61.1142 3.28172L61.1355 3.32181C61.1333 3.24053 61.1572 3.37544 61.2073 3.72653C61.2704 4.0637 61.3328 4.62456 61.3945 5.4091C61.4562 6.19365 61.5055 7.26997 61.5424 8.63807C61.6293 11.8619 61.6263 14.0105 61.5336 15.0839C61.4405 16.1438 61.331 16.8448 61.205 17.1871L64.0822 17.1092L63.8851 9.79457C64.1786 8.64796 64.7176 7.83358 65.5022 7.35144C65.9403 7.0549 66.3687 6.90096 66.7874 6.88961C66.9766 6.88448 67.1326 6.90737 67.2557 6.95825C67.6379 7.097 67.9827 7.35199 68.2901 7.72321C68.9615 8.55901 69.3634 9.68 69.4959 11.0862C69.5135 11.2348 69.5266 11.4717 69.5354 11.7968L69.6745 16.9576L72.3693 16.8846C72.2718 16.7788 72.1575 16.3007 72.0265 15.4502C71.9085 14.5859 71.8279 13.3477 71.7844 11.7358Z" fill="white"/>
<path d="M98.3302 24.8472C98.1867 24.5524 98.1156 24.2474 98.1169 23.9322C98.1363 23.6107 98.1985 23.3249 98.3035 23.0749L101.301 16.8294L101.327 16.7745L101.272 16.7481L101.218 16.7216L94.7888 13.6189L94.734 13.5924L94.7076 13.6474L94.3736 14.3433L94.3472 14.3983L94.3749 14.4342L100.372 18.3435L99.4752 20.2116L97.3759 21.6798C96.8912 22.0023 96.3538 22.2316 95.7635 22.3678C95.1733 22.504 94.5754 22.5313 93.9697 22.4495C93.4548 22.3664 92.9599 22.2103 92.485 21.9811C92.1562 21.8224 91.8636 21.6511 91.607 21.4671C90.6342 20.6818 90.0854 19.5598 89.9607 18.1011C89.8333 16.4606 90.2823 14.5719 91.3078 12.4352C92.3334 10.2984 93.5251 8.76826 94.8832 7.84467C95.4756 7.45388 96.0821 7.19016 96.7025 7.0535C97.3288 6.90462 97.9392 6.89842 98.5335 7.03488C98.9709 7.18584 99.2871 7.30832 99.4819 7.40235C99.8837 7.59627 100.302 7.88085 100.737 8.25609C101.215 8.69735 101.6 9.20667 101.893 9.78406C102.192 10.3492 102.372 10.9253 102.436 11.5122L102.703 13.5809L102.733 13.7987L102.821 13.6155L103.586 12.0221L103.612 11.9672C103.351 11.0741 102.94 10.2743 102.379 9.56761C101.837 8.8546 101.144 8.21962 100.302 7.66267C100.051 7.49676 99.8045 7.35504 99.561 7.23751C99.2079 7.0671 98.8372 6.93331 98.4489 6.83616C97.538 6.54691 96.5904 6.42792 95.606 6.47918C94.6338 6.53631 93.6943 6.75962 92.7876 7.14911C91.8628 7.54492 91.0339 8.08474 90.3008 8.76857C89.5799 9.45827 89.0084 10.2427 88.5865 11.1218C88.1646 12.0009 87.9097 12.9381 87.822 13.9334C87.7464 14.9346 87.8399 15.9271 88.1025 16.911C88.3705 17.8524 88.7826 18.728 89.3387 19.5378C89.9129 20.3412 90.5968 21.0096 91.3905 21.5431C91.7085 21.7868 92.044 21.9938 92.3971 22.1642C92.5432 22.2347 92.8106 22.3337 93.1993 22.4612C94.0742 22.7631 94.9619 22.9133 95.8624 22.9118C96.7809 22.904 97.6307 22.7426 98.4116 22.4278L98.1391 22.9955C98.0102 23.2641 97.9392 23.5683 97.9262 23.9078C97.9254 24.2533 98.003 24.5915 98.159 24.9225L98.1963 24.9856L98.2592 24.9483L98.3133 24.9293L98.3674 24.9103L98.3302 24.8472Z" fill="white"/>
<path d="M112.251 24.7935C112.235 24.2277 112.054 23.6462 111.709 23.0491C111.364 22.4521 110.935 21.9339 110.42 21.4946C110.091 21.2134 109.767 20.9992 109.449 20.8517C108.75 20.5042 107.992 20.3104 107.174 20.2704C106.366 20.2392 105.596 20.3732 104.862 20.6724C104.129 20.9717 103.508 21.4205 103 22.0188C102.403 22.7012 102.037 23.5189 101.902 24.4717C101.776 25.4142 101.874 26.3435 102.197 27.2596C102.528 28.1654 103.042 28.9075 103.74 29.4858C104.378 30.0305 105.121 30.4514 105.969 30.7485C106.837 31.0441 107.619 31.1158 108.316 30.9637L109.564 29.4936L107.793 29.8234C107.328 29.9953 106.69 30.0466 105.879 29.9772C105.345 29.8951 104.946 29.8215 104.682 29.7562C104.427 29.6805 104.167 29.5476 103.903 29.3574C103.657 29.1657 103.465 28.9745 103.325 28.7839C103.195 28.602 103.101 28.3789 103.041 28.1145C102.89 27.4154 102.974 26.731 103.294 26.0612C103.615 25.3914 104.088 24.6565 104.714 23.8564C105.301 23.1652 105.855 22.5968 106.375 22.1513C106.895 21.7058 107.454 21.3821 108.052 21.1803C108.442 21.0335 108.833 21.0022 109.223 21.0862C109.613 21.1702 109.963 21.3439 110.271 21.6075C110.693 21.9677 110.958 22.3982 111.065 22.8991C111.152 23.2765 111.128 23.6918 110.992 24.1449C110.855 24.5981 110.638 25 110.34 25.3508C110.183 25.5365 110.026 25.6788 109.871 25.7778C109.596 25.9345 109.271 26.0038 108.896 25.9859C108.529 25.9577 108.149 25.873 107.754 25.7316C107.518 25.6545 107.177 25.5233 106.73 25.3381C106.203 25.1017 105.763 24.9304 105.41 24.8242C105.066 24.7269 104.754 24.7183 104.473 24.7986L104.484 24.9418C104.808 24.9158 105.137 24.9567 105.472 25.0643C105.826 25.1705 106.266 25.3418 106.793 25.5782C106.793 25.5782 106.991 25.6584 107.387 25.8188L111.299 27.4509C111.644 27.0868 111.898 26.6722 112.062 26.2073C112.226 25.7423 112.289 25.271 112.251 24.7935Z" fill="white"/>
<path d="M114.9 37.3095C114.587 37.5674 114.219 37.7476 113.796 37.8503C113.373 37.953 112.955 37.955 112.542 37.8565C112.138 37.7684 111.816 37.5777 111.576 37.2845C111.396 37.0645 111.258 36.8535 111.163 36.6515C111.023 36.3104 111.052 35.9714 111.248 35.6346C111.463 35.2996 111.874 34.8828 112.48 34.3843C112.678 34.2209 113.131 33.866 113.837 33.3196L114.461 32.8324C115.23 32.2345 115.86 31.7334 116.351 31.3294L118.717 29.3823L120.993 32.1633L120.869 31.3712L120.26 30.9789L118.858 29.2663L122.54 26.236L118.807 26.1272L118.772 26.1816C118.668 26.4602 118.23 26.9175 117.457 27.5537L116.068 25.8568L115.927 25.9728L117.316 27.6697C117.188 27.7919 116.979 27.9734 116.686 28.2141L114.95 29.6168L111.754 32.2473C111.242 32.6685 110.858 33.1072 110.602 33.5633C110.352 34.049 110.249 34.5201 110.29 34.9768C110.312 35.3447 110.419 35.7212 110.611 36.1061C110.778 36.4595 110.993 36.8177 111.255 37.1805L111.37 37.322C111.499 37.4791 111.635 37.6128 111.777 37.7232C111.929 37.8441 112.144 37.9472 112.424 38.0326C113.042 38.1899 113.666 38.1408 114.296 37.8853C114.617 37.7437 114.861 37.6041 115.029 37.4666L115.076 37.4279L114.947 37.2708L114.9 37.3095Z" fill="white"/>
<path d="M118.314 48.4316C118.339 48.3592 118.51 48.2005 118.827 47.9557C119.157 47.7049 119.832 47.2853 120.854 46.697C121.888 46.1028 123.353 45.3438 125.25 44.42L132.487 40.8936L132.542 40.867L132.515 40.8121L131.107 37.9053L131.027 37.7407L130.971 37.9037C130.946 37.9761 130.769 38.1378 130.44 38.3885C130.123 38.6334 129.447 39.0529 128.413 39.6472C127.391 40.2355 125.932 40.9915 124.036 41.9153C121.131 43.3306 119.054 44.2372 117.805 44.635C117.392 44.7758 117.089 44.8632 116.895 44.8974C116.713 44.9256 116.617 44.9275 116.605 44.9031L116.451 44.865L116.522 45.0113L118.187 48.4483L118.267 48.6129L118.314 48.4316Z" fill="white"/>
<path d="M127.598 58.0197C128.506 57.7019 129.274 57.1703 129.904 56.4248C130.551 55.6886 130.911 54.8589 130.983 53.9356C130.999 53.353 130.949 52.8598 130.834 52.4561C130.561 51.5053 129.893 50.8167 128.829 50.3902L130.874 49.8008L128.6 47.8974L128.549 47.8695C128.425 47.9758 128.282 48.0663 128.121 48.141C127.973 48.2119 127.636 48.3371 127.111 48.5166C126.599 48.6924 125.791 48.9393 124.687 49.2573C123.255 49.656 122.161 49.9359 121.406 50.0971C120.651 50.2583 120.153 50.3381 119.914 50.3366C119.674 50.3351 119.468 50.3029 119.296 50.2398L120.062 52.9162L128.498 50.4857C129.174 50.6857 129.664 50.9744 129.969 51.3517C130.291 51.7384 130.481 52.0359 130.541 52.2443C130.701 52.7057 130.624 53.172 130.309 53.6434C130.007 54.1111 129.601 54.5314 129.089 54.9044C128.481 55.3335 127.806 55.676 127.064 55.9321L125.641 56.3419L121.395 57.5656L121.988 59.6363L126.04 58.4688L127.598 58.0197Z" fill="white"/>
</svg>
