<svg width="250" height="38" viewBox="0 0 250 38" fill="none" xmlns="http://www.w3.org/2000/svg">
<path d="M19.7089 1.02921H19.611H18.5995H16.0216H12.367H7.89661H4.01357H1.46838H0.456829H0.326306V1.12881L0.0326306 4.68124L0 4.94684L0.195784 4.74764L3.98094 1.32801H7.89661C8.07064 1.72641 8.23379 2.87736 8.38607 4.78084C8.53834 6.68432 8.61448 9.86048 8.61448 14.3093C8.61448 19.4 8.47308 23.1185 8.19028 25.4646C8.08152 26.4164 7.9945 26.9808 7.92924 27.1578C7.86398 27.3349 7.83135 27.4234 7.83135 27.4234L7.66819 27.5894H7.89661H13.1828H13.4438L13.2807 27.4234C13.1284 27.2021 12.9544 26.184 12.7586 24.369C12.5845 22.5541 12.4975 19.2008 12.4975 14.3093V1.32801H16.0869L19.8394 4.74764L20.0352 4.94684V4.68124L19.7089 1.12881V1.02921Z" fill="black"/>
<path d="M38.2765 19.1566C38.2765 18.8024 38.2656 18.5368 38.2438 18.3598C38.1351 16.8547 37.6891 15.4824 36.906 14.2429C36.1446 12.9813 35.1766 12.0406 34.0019 11.4209C33.0012 10.9118 31.9679 10.6573 30.902 10.6573C30.3799 10.6573 29.8904 10.7237 29.4336 10.8565C28.1936 11.2328 27.1821 12.0074 26.3989 13.1805C26.1379 13.5789 25.953 13.8888 25.8442 14.1101L25.6484 14.6081V0L21.5043 4.81404L21.4717 4.88044L21.5043 4.94684C21.5043 4.81404 21.537 5.03538 21.6022 5.61085C21.6892 6.16418 21.7654 7.08273 21.8306 8.36647C21.8959 9.65021 21.9285 11.4098 21.9285 13.6453C21.9285 18.9131 21.8306 22.4213 21.6349 24.1698C21.4391 25.8962 21.2324 27.0361 21.0149 27.5894H25.6484V15.6373C26.1705 13.7781 27.0733 12.4722 28.3568 11.7197C29.0746 11.2549 29.7708 11.0225 30.4451 11.0225C30.7497 11.0225 30.9998 11.0668 31.1956 11.1553C31.8047 11.3988 32.3486 11.8304 32.8272 12.4501C33.8713 13.8445 34.4696 15.6927 34.6218 17.9946C34.6436 18.238 34.6545 18.6254 34.6545 19.1566V27.5894H38.9943C38.8421 27.4124 38.6789 26.6266 38.5049 25.2322C38.3526 23.8157 38.2765 21.7905 38.2765 19.1566Z" fill="black"/>
<path d="M55.3492 12.7157C54.7401 12.0296 53.9134 11.4984 52.8692 11.1221C51.8251 10.7458 50.7591 10.5577 49.6714 10.5577C48.9753 10.5577 48.3553 10.6352 47.8115 10.7901C46.5933 11.1 45.4621 11.6644 44.4179 12.4833C43.3955 13.3022 42.5906 14.2872 42.0032 15.4381C41.4159 16.5891 41.1222 17.8064 41.1222 19.0902C41.1005 20.5731 41.5029 21.9786 42.3296 23.3066C43.1562 24.6125 44.2439 25.6638 45.5926 26.4606C46.9413 27.2353 48.3445 27.6116 49.802 27.5894C51.1507 27.5894 52.4994 27.3238 53.8482 26.7926C55.2186 26.2393 56.2519 25.4978 56.9481 24.5682V21.4142L55.1208 23.705C54.7292 24.4133 54.0004 25.1547 52.9345 25.9294C52.1949 26.3942 51.6293 26.7262 51.2377 26.9254C50.8461 27.1025 50.3893 27.2132 49.8672 27.2574C49.3669 27.2796 48.9318 27.2464 48.562 27.1578C48.2139 27.0693 47.8659 26.8922 47.5178 26.6266C46.6042 25.9184 45.9951 24.9777 45.6905 23.8046C45.386 22.6315 45.2011 21.215 45.1358 19.555C45.1358 18.072 45.2228 16.7772 45.3968 15.6705C45.5709 14.5639 45.9189 13.5678 46.441 12.6825C46.7673 12.0849 47.2133 11.6312 47.7789 11.3213C48.3445 11.0114 48.9536 10.8565 49.6062 10.8565C50.4981 10.8565 51.2703 11.111 51.923 11.6201C52.4233 11.9964 52.8257 12.5386 53.1303 13.2469C53.4348 13.9552 53.5871 14.6856 53.5871 15.4381C53.5871 15.8365 53.5436 16.1796 53.4566 16.4673C53.2826 16.9543 52.9563 17.3859 52.4777 17.7622C51.9991 18.1163 51.4444 18.4151 50.8135 18.6586C50.4437 18.8135 49.889 19.0127 49.1494 19.2562C48.2574 19.5218 47.5396 19.7763 46.9957 20.0198C46.4736 20.2632 46.0821 20.5842 45.821 20.9826L45.9842 21.1486C46.354 20.7723 46.7999 20.4735 47.322 20.2522C47.8659 20.0087 48.5838 19.7542 49.4757 19.4886C49.4757 19.4886 49.802 19.3779 50.4546 19.1566L56.9481 17.0317C56.9916 16.2128 56.8719 15.4271 56.5891 14.6745C56.3063 13.922 55.893 13.269 55.3492 12.7157Z" fill="black"/>
<path d="M78.6474 1.02921H78.5822H74.7318H74.5686L74.6339 1.19521L75.7759 4.21643C75.7977 4.2607 75.8086 4.31604 75.8086 4.38244L75.8412 4.54844V4.71444V4.74764C75.8412 4.88044 75.7977 5.12391 75.7107 5.47805C75.7107 5.58871 75.6998 5.66618 75.678 5.71045C75.6128 6.08672 75.504 6.58472 75.3517 7.20446C75.243 7.60286 74.9167 8.59887 74.3728 10.1925L73.2307 13.1141L71.9908 16.0025C71.2947 17.5961 70.8487 18.5922 70.6529 18.9906L70.0656 20.3186L64.7468 27.4234L64.6163 27.5894H64.8447H66.8025H66.8678L66.9004 27.523L69.4456 22.3106C70.7508 19.566 71.708 17.5187 72.3171 16.1685L73.5897 13.2801C73.9595 12.439 74.3511 11.4652 74.7644 10.3585C75.2865 8.89767 75.6345 7.8906 75.8086 7.33726C76.0261 6.49619 76.1457 5.97605 76.1675 5.77685L76.2001 5.57765L76.2328 5.41165L80.9642 17.9614H72.1866H72.1213L72.0887 17.9946L71.0445 20.2522L70.9792 20.385H71.1424H81.8779L84.5862 27.4898L84.6188 27.5562H84.6841H88.5345H88.665L88.6324 27.4234L78.6801 1.09561L78.6474 1.02921Z" fill="black"/>
<path d="M103.955 11.8857C102.758 10.5356 101.485 9.86048 100.137 9.86048C99.6799 9.86048 99.2666 9.92688 98.8968 10.0597C97.9178 10.3253 97.0586 10.8897 96.3189 11.7529C95.5793 12.594 95.0028 13.5678 94.5895 14.6745C94.3937 15.1836 94.2306 15.748 94.1001 16.3677C93.9913 16.9653 93.926 17.3305 93.9043 17.4633L93.7411 18.1938V9.16328L89.7276 11.9521C89.8798 12.2841 89.9777 12.8374 90.0212 13.6121C90.0865 14.3647 90.13 16.0468 90.1518 18.6586C90.13 21.0932 90.0756 22.9414 89.9886 24.203C89.9016 25.4425 89.8037 26.2614 89.6949 26.6598C89.5862 27.0361 89.4556 27.346 89.3034 27.5894H93.7411V19.721L94.0022 18.4594C94.2632 16.9764 94.5569 15.748 94.8832 14.7741C95.253 13.8224 95.6881 13.0256 96.1884 12.3837C96.5582 11.941 96.8519 11.609 97.0694 11.3877C97.3087 11.1442 97.5915 10.945 97.9178 10.7901C98.0919 10.7016 98.2877 10.6573 98.5052 10.6573C99.0925 10.6573 99.7125 10.9893 100.365 11.6533C101.04 12.2952 101.638 13.0477 102.16 13.9109C102.704 14.7741 103.106 15.5156 103.367 16.1353L104.705 12.6825L103.955 11.8857Z" fill="black"/>
<path d="M110.471 14.7409C110.776 13.6121 111.189 12.7268 111.711 12.0849C112.386 11.266 113.147 10.8344 113.996 10.7901C114.648 10.7237 115.268 10.8565 115.855 11.1885C116.682 11.6312 117.454 12.3173 118.172 13.2469C118.607 13.8002 119.195 14.6745 119.934 15.8697L120.163 16.2681L120.032 13.2801C120.032 13.1916 120.021 13.1252 120 13.0809C119.978 12.9702 119.923 12.8817 119.836 12.8153C118.771 11.7308 117.454 11.0114 115.888 10.6573C115.323 10.5245 114.8 10.4581 114.322 10.4581C113.647 10.4581 112.919 10.5909 112.136 10.8565C110.33 11.432 108.851 12.4833 107.698 14.0105C106.567 15.5156 106.001 17.1867 106.001 19.0238C106.001 20.7723 106.556 22.3991 107.665 23.9042C108.775 25.4093 110.2 26.4717 111.94 27.0914C112.179 27.2242 112.505 27.346 112.919 27.4566C113.354 27.5452 113.822 27.5894 114.322 27.5894C114.8 27.5894 115.192 27.5562 115.497 27.4898C116.432 27.3128 117.302 27.014 118.107 26.5934C118.912 26.1508 119.586 25.6085 120.13 24.9666V24.9334V21.2482L118.629 23.9706C118.216 24.701 117.672 25.3761 116.998 25.9958C116.323 26.6156 115.649 27.025 114.974 27.2242C114.67 27.2685 114.452 27.2906 114.322 27.2906C114.104 27.2906 113.941 27.2796 113.832 27.2574C112.592 27.014 111.646 26.195 110.994 24.8006C110.341 23.4062 110.015 21.4806 110.015 19.0238C110.015 17.4523 110.167 16.0247 110.471 14.7409Z" fill="black"/>
<path d="M149.472 3.58563C149.363 2.58962 149.157 1.79282 148.852 1.19521L148.787 1.06241H148.689H148.656H146.862H146.699L146.764 1.22841L149.113 6.60686C149.07 6.87246 149.048 7.06059 149.048 7.17126C148.548 10.779 147.155 15.25 144.871 20.5842L141.053 25.7302L133.907 1.16201L133.875 1.06241H133.809L128.197 1.09561H127.838L128.164 1.29481C128.425 1.56041 128.817 2.24655 129.339 3.35323C130.47 5.74365 131.765 9.41781 133.222 14.3757L136.909 27.523L136.942 27.5894H137.007H141.837H141.902L141.935 27.523L142 27.3902C145.915 19.6435 148.308 13.2912 149.178 8.33327C149.396 7.02739 149.505 5.78792 149.505 4.61484C149.505 4.15003 149.494 3.80696 149.472 3.58563Z" fill="black"/>
<path d="M162.76 21.879C162.76 18.0942 162.771 16.1575 162.793 16.0689C161.618 17.0428 160.345 17.8286 158.975 18.4262L156.821 19.3226C156.277 19.898 155.853 20.562 155.549 21.3146C155.266 22.045 155.124 22.8197 155.124 23.6386C155.124 25.6527 155.657 26.848 156.723 27.2242C156.876 27.2464 157.093 27.2574 157.376 27.2574C158.42 27.2574 159.334 27.014 160.117 26.527C160.922 26.018 161.542 25.3539 161.977 24.535C162.434 23.7161 162.695 22.8307 162.76 21.879ZM166.447 16.7329C166.447 19.7874 166.458 22.0118 166.48 23.4062C166.523 24.8006 166.578 25.7302 166.643 26.195C166.708 26.6377 166.817 27.1025 166.969 27.5894H162.76V23.6386C162.455 24.5239 161.977 25.2986 161.324 25.9626C160.693 26.6045 159.954 27.0693 159.105 27.357C158.627 27.512 158.039 27.5894 157.343 27.5894C156.103 27.5894 154.939 27.346 153.852 26.859C152.786 26.35 152.122 25.7081 151.861 24.9334C151.709 24.6014 151.633 24.2362 151.633 23.8378C151.633 22.9746 151.992 22.1778 152.71 21.4474C153.428 20.717 154.178 20.1747 154.961 19.8206C156.636 19.1566 158.322 18.3487 160.019 17.3969C161.738 16.4452 162.662 15.7369 162.793 15.2721C162.814 14.3204 162.684 13.4682 162.401 12.7157C162.14 11.941 161.661 11.3988 160.965 11.0889C160.443 10.8454 159.812 10.7458 159.073 10.7901C157.985 10.8344 157.115 11.2881 156.462 12.1513C155.831 13.0145 155.527 14.2761 155.549 15.9361L153.101 13.9441C153.08 12.6825 153.645 11.7861 154.798 11.2549C155.973 10.7237 157.398 10.4581 159.073 10.4581C159.986 10.4581 160.944 10.5466 161.944 10.7237C162.967 10.9229 163.837 11.3213 164.555 11.9189C165.273 12.4944 165.795 13.2469 166.121 14.1765C166.23 14.4864 166.306 14.9069 166.349 15.4381C166.415 15.9472 166.447 16.3788 166.447 16.7329Z" fill="black"/>
<path d="M184.791 18.0278C184.704 16.4563 184.225 15.0065 183.355 13.6785C182.507 12.3284 181.386 11.3877 179.994 10.8565C179.102 10.5688 178.319 10.4249 177.645 10.4249C176.057 10.4249 174.697 11.1664 173.566 12.6493V9.16328L169.618 11.8857L169.552 11.9521C169.661 12.1956 169.737 12.4612 169.781 12.7489C169.824 13.0145 169.868 13.601 169.911 14.5085C169.955 15.3939 169.976 16.7772 169.976 18.6586C169.955 21.0932 169.9 22.9414 169.813 24.203C169.726 25.4646 169.628 26.2836 169.52 26.6598C169.411 27.0361 169.269 27.346 169.095 27.5894H173.566V13.2137C174.175 12.2398 174.838 11.598 175.556 11.2881C176.296 10.9561 176.84 10.7901 177.188 10.7901C177.971 10.7458 178.656 11.0778 179.244 11.7861C179.831 12.4722 180.299 13.3022 180.647 14.2761C181.038 15.4271 181.267 16.6444 181.332 17.9282V20.3518V27.5894H184.791V20.6838V18.0278Z" fill="black"/>
<path d="M198.133 23.1074C198.133 23.7714 197.981 24.4243 197.677 25.0662C197.372 25.7081 196.948 26.2393 196.404 26.6598C195.882 27.0804 195.316 27.2906 194.707 27.2906C194.25 27.2906 193.848 27.2464 193.5 27.1578C192.934 26.9808 192.543 26.5934 192.325 25.9958C192.129 25.3761 192.031 24.4243 192.031 23.1406C192.031 22.7201 192.053 21.7794 192.097 20.3186L192.129 19.0238C192.173 17.4301 192.195 16.1132 192.195 15.0729V10.0597H197.97L196.861 9.39568L195.751 9.76088H192.195V1.95882L188.246 6.57366L188.279 6.67326C188.518 7.09379 188.638 8.123 188.638 9.76088H185.114V10.0597H188.638C188.66 10.3474 188.67 10.8012 188.67 11.4209L188.638 15.0729V21.8458C188.638 22.9303 188.79 23.871 189.095 24.6678C189.443 25.4867 189.921 26.1065 190.53 26.527C191.009 26.8812 191.585 27.1357 192.26 27.2906C192.869 27.4456 193.532 27.5452 194.25 27.5894H194.544C194.87 27.5894 195.175 27.5562 195.458 27.4898C195.762 27.4234 196.11 27.2574 196.502 26.9918C197.328 26.3721 197.905 25.531 198.231 24.4686C198.384 23.9153 198.46 23.4615 198.46 23.1074V23.0078H198.133V23.1074Z" fill="black"/>
<path d="M210.559 21.879C210.559 18.0942 210.57 16.1575 210.591 16.0689C209.417 17.0428 208.144 17.8286 206.774 18.4262L204.62 19.3226C204.076 19.898 203.652 20.562 203.347 21.3146C203.065 22.045 202.923 22.8197 202.923 23.6386C202.923 25.6527 203.456 26.848 204.522 27.2242C204.674 27.2464 204.892 27.2574 205.175 27.2574C206.219 27.2574 207.133 27.014 207.916 26.527C208.721 26.018 209.341 25.3539 209.776 24.535C210.232 23.7161 210.493 22.8307 210.559 21.879ZM214.246 16.7329C214.246 19.7874 214.257 22.0118 214.279 23.4062C214.322 24.8006 214.377 25.7302 214.442 26.195C214.507 26.6377 214.616 27.1025 214.768 27.5894H210.559V23.6386C210.254 24.5239 209.776 25.2986 209.123 25.9626C208.492 26.6045 207.752 27.0693 206.904 27.357C206.426 27.512 205.838 27.5894 205.142 27.5894C203.902 27.5894 202.738 27.346 201.651 26.859C200.585 26.35 199.921 25.7081 199.66 24.9334C199.508 24.6014 199.432 24.2362 199.432 23.8378C199.432 22.9746 199.791 22.1778 200.508 21.4474C201.226 20.717 201.977 20.1747 202.76 19.8206C204.435 19.1566 206.121 18.3487 207.818 17.3969C209.536 16.4452 210.461 15.7369 210.591 15.2721C210.613 14.3204 210.483 13.4682 210.2 12.7157C209.939 11.941 209.46 11.3988 208.764 11.0889C208.242 10.8454 207.611 10.7458 206.871 10.7901C205.784 10.8344 204.914 11.2881 204.261 12.1513C203.63 13.0145 203.326 14.2761 203.347 15.9361L200.9 13.9441C200.878 12.6825 201.444 11.7861 202.597 11.2549C203.772 10.7237 205.196 10.4581 206.871 10.4581C207.785 10.4581 208.742 10.5466 209.743 10.7237C210.765 10.9229 211.636 11.3213 212.353 11.9189C213.071 12.4944 213.593 13.2469 213.92 14.1765C214.028 14.4864 214.105 14.9069 214.148 15.4381C214.213 15.9472 214.246 16.3788 214.246 16.7329Z" fill="black"/>
<path d="M222.8 11.1221C221.56 11.8746 220.94 13.6342 220.94 16.4009C220.94 18.238 221.234 19.6546 221.821 20.6506C221.908 20.6063 222.017 20.5178 222.148 20.385C222.3 20.2522 222.409 20.1526 222.474 20.0862C223.866 18.736 225.487 16.6444 227.336 13.8113C227.075 12.7046 226.662 11.93 226.096 11.4873C225.552 11.0225 224.943 10.7901 224.269 10.7901C223.964 10.7901 223.67 10.8233 223.388 10.8897C223.127 10.9561 222.931 11.0336 222.8 11.1221ZM225.378 21.879C226.096 21.547 226.651 20.9051 227.042 19.9534C227.434 19.0016 227.63 17.8175 227.63 16.4009C227.63 15.8033 227.564 15.0619 227.434 14.1765C226.672 15.3496 225.802 16.5448 224.823 17.7622C223.866 18.9574 223.127 19.7984 222.605 20.2854C222.256 20.6395 222.039 20.8387 221.952 20.883C222.191 21.2814 222.518 21.5802 222.931 21.7794C223.344 21.9786 223.779 22.0782 224.236 22.0782C224.562 22.0782 224.943 22.0118 225.378 21.879ZM231.839 28.7514C232.318 29.5925 232.557 30.5332 232.557 31.5735C232.557 32.1711 232.502 32.7133 232.394 33.2003C232.22 33.9086 231.97 34.473 231.643 34.8935C231.404 35.2919 231.001 35.7014 230.436 36.1219C229.87 36.5646 229.131 36.9408 228.217 37.2507C227.325 37.5606 226.314 37.7155 225.182 37.7155C224.051 37.7155 222.953 37.5163 221.887 37.1179C220.821 36.7416 219.951 36.299 219.276 35.7899C218.232 35.0595 217.514 34.2516 217.123 33.3663C216.753 32.4809 216.568 31.6288 216.568 30.8099C216.568 30.1901 216.666 29.6589 216.862 29.2162C217.036 28.7736 217.21 28.4416 217.384 28.2202L220.288 29.5482C220.266 29.5925 220.146 29.7807 219.929 30.1127C219.603 30.666 219.352 31.1308 219.178 31.5071C219.026 31.8833 218.95 32.3149 218.95 32.8019C218.95 33.3109 219.059 33.8311 219.276 34.3623C219.668 35.4468 220.451 36.2215 221.626 36.6863C222.8 37.1732 223.986 37.4167 225.182 37.4167C226.27 37.4167 227.347 37.2175 228.413 36.8191C229.5 36.4207 230.381 35.8674 231.056 35.1591C231.752 34.4508 232.1 33.6651 232.1 32.8019C232.1 31.9165 231.817 31.2083 231.252 30.6771C230.708 30.1459 229.936 29.7142 228.935 29.3822C227.956 29.0724 226.379 28.6629 224.203 28.1538L223.714 28.0542C222.496 27.7886 221.484 27.4234 220.679 26.9586C219.874 26.4938 219.32 25.9626 219.015 25.365C218.819 25.0551 218.721 24.7231 218.721 24.369C218.721 23.9706 218.852 23.4283 219.113 22.7422C219.374 22.3217 219.896 21.9011 220.679 21.4806C219.592 20.9272 218.732 20.2079 218.102 19.3226C217.492 18.4151 217.188 17.4412 217.188 16.4009V16.1685C217.188 15.7259 217.307 15.2057 217.547 14.6081C217.721 14.1433 217.982 13.7117 218.33 13.3133C218.591 12.9592 218.972 12.5829 219.472 12.1845C220.081 11.7418 220.549 11.4541 220.875 11.3213C221.201 11.1664 221.734 10.9782 222.474 10.7569C223.127 10.602 223.714 10.5245 224.236 10.5245H224.464C225.835 10.5466 227.205 11.0004 228.576 11.8857C229.359 10.3142 229.783 9.22968 229.849 8.63207V8.39967V8.23367H231.839L229.196 11.1885C229.109 11.4098 228.978 11.6865 228.804 12.0185C229.609 12.5718 230.229 13.2248 230.664 13.9773C231.099 14.7299 231.317 15.5377 231.317 16.4009C231.317 17.4412 231.001 18.4151 230.371 19.3226C229.762 20.2079 228.924 20.9272 227.858 21.4806C226.814 22.0339 225.683 22.3217 224.464 22.3438H223.975C222.887 22.2774 221.908 22.045 221.038 21.6466C220.864 21.6466 220.571 21.8015 220.157 22.1114C219.744 22.4213 219.483 22.6647 219.374 22.8418L219.341 22.9414C219.341 23.0521 219.396 23.1627 219.505 23.2734C220.222 23.9374 222.67 24.701 226.846 25.5642C227.847 25.7413 228.826 26.1286 229.783 26.7262C230.762 27.3238 231.447 27.9989 231.839 28.7514Z" fill="black"/>
<path d="M248.392 12.7157C247.783 12.0296 246.957 11.4984 245.912 11.1221C244.868 10.7458 243.802 10.5577 242.715 10.5577C242.019 10.5577 241.399 10.6352 240.855 10.7901C239.637 11.1 238.505 11.6644 237.461 12.4833C236.439 13.3022 235.634 14.2872 235.046 15.4381C234.459 16.5891 234.165 17.8064 234.165 19.0902C234.144 20.5731 234.546 21.9786 235.373 23.3066C236.199 24.6125 237.287 25.6638 238.636 26.4606C239.985 27.2353 241.388 27.6116 242.845 27.5894C244.194 27.5894 245.543 27.3238 246.891 26.7926C248.262 26.2393 249.295 25.4978 249.991 24.5682V21.4142L248.164 23.705C247.772 24.4133 247.044 25.1547 245.978 25.9294C245.238 26.3942 244.673 26.7262 244.281 26.9254C243.889 27.1025 243.433 27.2132 242.91 27.2574C242.41 27.2796 241.975 27.2464 241.605 27.1578C241.257 27.0693 240.909 26.8922 240.561 26.6266C239.647 25.9184 239.038 24.9777 238.734 23.8046C238.429 22.6315 238.244 21.215 238.179 19.555C238.179 18.072 238.266 16.7772 238.44 15.6705C238.614 14.5639 238.962 13.5678 239.484 12.6825C239.811 12.0849 240.256 11.6312 240.822 11.3213C241.388 11.0114 241.997 10.8565 242.649 10.8565C243.541 10.8565 244.314 11.111 244.966 11.6201C245.467 11.9964 245.869 12.5386 246.174 13.2469C246.478 13.9552 246.63 14.6856 246.63 15.4381C246.63 15.8365 246.587 16.1796 246.5 16.4673C246.326 16.9543 245.999 17.3859 245.521 17.7622C245.042 18.1163 244.488 18.4151 243.857 18.6586C243.487 18.8135 242.932 19.0127 242.193 19.2562C241.301 19.5218 240.583 19.7763 240.039 20.0198C239.517 20.2632 239.125 20.5842 238.864 20.9826L239.027 21.1486C239.397 20.7723 239.843 20.4735 240.365 20.2522C240.909 20.0087 241.627 19.7542 242.519 19.4886C242.519 19.4886 242.845 19.3779 243.498 19.1566L249.991 17.0317C250.035 16.2128 249.915 15.4271 249.632 14.6745C249.35 13.922 248.936 13.269 248.392 12.7157Z" fill="black"/>
</svg>
