<svg width="62" height="60" viewBox="0 0 62 60" fill="none" xmlns="http://www.w3.org/2000/svg">
<path d="M3.42969 42.8574H5.14379V60H3.42969V42.8574Z" fill="#F8B242"/>
<path d="M8.50314 35.8212C8.5432 35.5791 8.5713 35.3471 8.5713 35.1438C8.5713 32.7761 6.65332 30.8582 4.28565 30.8582C1.91798 30.8582 0 32.7761 0 35.1438C0 35.3471 0.0280999 35.5791 0.068757 35.8212C0.0860955 35.9294 0.104033 36.0353 0.128546 36.1411C0.749154 39.0025 3.52569 43.715 4.28563 43.715C5.04615 43.715 7.82205 39.0025 8.44271 36.1405C8.46782 36.0352 8.48576 35.9288 8.50309 35.8212L8.50314 35.8212ZM6.85715 35.1438L4.2856 38.572L1.71406 35.1438H6.85715Z" fill="#F8B242"/>
<path d="M61.6451 4.96306C61.6852 4.72152 61.7139 4.49014 61.7139 4.28565C61.7139 1.91798 59.7959 0 57.4282 0C55.0606 0 53.1426 1.91798 53.1426 4.28565C53.1426 4.48953 53.1707 4.72092 53.2113 4.96306C53.2287 5.07128 53.2454 5.17829 53.2705 5.28292C53.8917 8.14436 56.6677 12.8569 57.4282 12.8569C58.1888 12.8569 60.9647 8.14436 61.5859 5.28231C61.611 5.17828 61.6278 5.07126 61.6451 4.96304L61.6451 4.96306ZM57.4282 1.71469L59.357 4.28623L59.9992 5.14301H54.8561L55.4988 4.28563L57.4282 1.71469Z" fill="#F8B242"/>
<path d="M56.5723 11.1436H58.2864V28.2862H56.5723V11.1436Z" fill="#F8B242"/>
<path d="M6.43916 59.8806L5.56445 58.4062L7.776 57.0951L8.65132 58.57L6.43916 59.8806ZM10.8618 57.2564L9.98648 55.7814L12.1986 54.4703L13.074 55.9452L10.8618 57.2564ZM15.2855 54.6328L14.4102 53.1578L16.6217 51.8455L17.4971 53.3205L15.2855 54.6328ZM19.7081 52.0092L18.8328 50.5343L21.0444 49.2231L21.9197 50.6981L19.7081 52.0092ZM24.1312 49.3846L23.2559 47.9096L25.4681 46.5984L26.3434 48.0734L24.1312 49.3846ZM28.5543 46.7616L27.679 45.2866L29.8906 43.9743L30.7659 45.4493L28.5543 46.7616ZM32.9774 44.1374L32.1033 42.6624L34.3149 41.3513L35.189 42.8263L32.9774 44.1374ZM37.4001 41.5138L36.526 40.0389L38.7375 38.7277L39.6116 40.2027L37.4001 41.5138ZM41.8238 38.8896L40.9485 37.4147L43.16 36.1023L44.0353 37.5773L41.8238 38.8896ZM46.2464 36.2661L45.3723 34.7911L47.5839 33.4799L48.458 34.9549L46.2464 36.2661ZM50.6695 33.6414L49.7954 32.1664L52.007 30.8553L52.8811 32.3296L50.6695 33.6414ZM55.0922 31.0178L54.2181 29.5434L56.1348 28.4062L57.0089 29.8806L55.0922 31.0178Z" fill="#F8B242"/>
</svg>
