<svg width="200" height="205" viewBox="0 0 200 205" fill="none" xmlns="http://www.w3.org/2000/svg">
<path d="M198.133 137.907C198.591 137.886 199.028 137.705 199.366 137.394C199.705 137.084 199.923 136.664 199.983 136.209C200.043 135.754 199.942 135.292 199.696 134.904C199.45 134.516 199.075 134.227 198.638 134.088C176.964 127.758 155.948 119.365 135.878 109.021C150.329 94.7848 167.281 83.3338 185.884 75.2423C188.346 74.1689 186.547 70.4122 184.084 71.012C171.457 74.1689 158.987 77.0418 146.359 79.7883C144.181 80.2618 129.28 84.8709 127.417 83.8292C122.145 80.8932 125.555 79.441 125.239 74.8635C124.45 63.2144 127.954 50.0816 128.396 38.3062C128.838 26.5308 128.396 13.84 127.986 1.62264C128.021 1.24239 127.909 0.863007 127.672 0.563431C127.435 0.263856 127.092 0.0671653 126.714 0.0142923C126.336 -0.0385808 125.951 0.0564359 125.641 0.279569C125.332 0.502702 125.12 0.836765 125.05 1.21224C117.069 23.4252 110.366 46.0763 104.972 69.0547C100.899 85.9443 97.1424 73.0325 90.8601 63.7826C84.0411 53.7436 77.6009 43.5151 71.4449 33.0657C71.2218 32.6779 70.8643 32.3852 70.4401 32.2429C70.0159 32.1006 69.5542 32.1186 69.1424 32.2935C68.7305 32.4683 68.3969 32.7879 68.2046 33.1919C68.0123 33.5959 67.9746 34.0564 68.0986 34.4863C70.9417 45.6014 74.6032 56.491 79.0531 67.0659C81.1367 71.9907 85.0197 77.5784 86.3456 82.6927C88.1451 89.7958 90.7969 89.0065 81.042 87.6806C68.9825 85.9443 56.8283 81.1458 44.8636 78.5571C30.6889 75.4002 16.4512 73.506 2.05555 70.6648C0.382378 70.3491 -0.911964 72.7799 0.824349 73.6638C25.7957 86.481 52.7875 99.677 80.0002 107.664C57.9017 110.379 35.8032 117.135 14.5254 122.944C13.912 123.113 13.3811 123.5 13.0321 124.032C12.683 124.564 12.5395 125.205 12.6284 125.835C12.7173 126.466 13.0326 127.042 13.5153 127.457C13.998 127.871 14.6151 128.096 15.2515 128.089C27.6583 128.5 40.1282 128.468 52.598 128.373C58.9119 128.373 81.5471 124.932 84.9566 129.226C88.3661 133.519 79.5898 156.596 78.1692 162.91C75.2332 175.822 72.5183 188.734 70.2769 201.772C69.898 204.045 72.9918 205.75 74.2862 203.445C86.5772 181.41 98.3841 159.122 109.707 136.581C112.589 155.699 117.739 174.404 125.05 192.301C125.205 192.829 125.544 193.283 126.005 193.582C126.466 193.882 127.019 194.006 127.564 193.934C128.108 193.862 128.61 193.597 128.976 193.187C129.343 192.778 129.552 192.251 129.564 191.702C131.855 171.179 131.505 150.448 128.522 130.015C151.519 134.224 174.777 136.861 198.133 137.907V137.907Z" fill="#F8B242"/>
</svg>
